<svg width="120" height="120" viewBox="0 0 120 120" fill="none" xmlns="http://www.w3.org/2000/svg">
<rect width="120" height="120" rx="60" fill="#FFF4F4"/>
<path d="M48.6757 42.5606C48.5594 41.4487 49.7856 40.6294 50.7906 41.055C57.1713 42.69 63.5538 44.3212 69.9325 45.9637C70.5025 46.0931 71.11 46.4456 71.23 47.0644C71.3256 47.6812 71.275 48.3094 71.2825 48.9319C71.2788 58.9725 71.2806 69.0112 71.2825 79.05C63.745 79.05 56.2094 79.0481 48.6738 79.0519C48.6738 66.8869 48.67 54.7237 48.6757 42.5606ZM52.3357 49.7269C52.2832 49.77 52.1782 49.8562 52.1257 49.9012C52.0394 50.82 52.0507 51.7537 52.12 52.6744C52.1688 52.7212 52.27 52.8131 52.3188 52.86C53.2975 52.9256 54.295 52.9537 55.27 52.8394C55.6 52.3744 55.3844 51.7256 55.4482 51.1856C55.3882 50.7169 55.5832 50.1225 55.2625 49.7362C54.2969 49.6256 53.3032 49.6369 52.3357 49.7269ZM58.5363 49.7231C58.4913 49.77 58.4031 49.8656 58.36 49.9144C58.2888 50.8237 58.2888 51.7481 58.3581 52.6575C58.4031 52.7062 58.4913 52.8037 58.5363 52.8525C59.5075 52.9387 60.4957 52.9369 61.4669 52.8544C61.51 52.8037 61.5981 52.7062 61.6413 52.6575C61.7106 51.7481 61.7163 50.8256 61.6413 49.9181C61.5981 49.8694 61.5138 49.7719 61.4706 49.7231C60.4975 49.6369 59.5075 49.6369 58.5363 49.7231ZM64.8813 49.7194C64.8231 49.7644 64.7088 49.8544 64.6525 49.8994C64.6113 50.8556 64.4819 51.8812 64.7294 52.8037C65.5075 53.0081 66.3363 52.8656 67.135 52.905C67.4238 52.8844 67.975 52.9556 67.9488 52.5112C67.9506 51.5962 68.0894 50.6437 67.8569 49.7531C66.8744 49.6144 65.8656 49.6444 64.8813 49.7194ZM52.1969 56.3269C51.9513 57.2456 52.0919 58.2844 52.1238 59.2462C52.1781 59.2819 52.2888 59.3531 52.3432 59.3887C53.3107 59.4506 54.295 59.4712 55.2607 59.37C55.2944 59.3231 55.3638 59.2275 55.3994 59.1787C55.4781 58.29 55.4688 57.3862 55.4069 56.4956C55.3506 56.1056 54.8331 56.2575 54.5631 56.2069C53.7832 56.265 52.9319 56.0737 52.1969 56.3269ZM58.51 56.25C58.4706 56.3025 58.3956 56.4075 58.3581 56.46C58.2831 57.3712 58.2888 58.2975 58.3638 59.2087C58.4106 59.2519 58.5006 59.34 58.5456 59.3831C59.5094 59.46 60.4919 59.4656 61.4538 59.3775C61.4988 59.3362 61.5869 59.2537 61.6319 59.2125C61.7181 58.2169 61.7519 57.1969 61.5719 56.2069C60.5519 56.2481 59.5263 56.1506 58.51 56.25ZM64.7256 56.3025C64.4875 57.2381 64.6056 58.2694 64.6563 59.235L64.7613 59.3512C65.7175 59.4956 66.7038 59.4412 67.6675 59.3906C68.0275 59.3869 67.9356 58.9237 67.9713 58.6912C67.9319 57.9037 68.0969 57.0619 67.8513 56.31C66.8388 56.1375 65.7419 56.1506 64.7256 56.3025ZM52.1444 62.8275C51.9138 63.5437 52.0675 64.3256 52.0282 65.0681C52.0769 65.3437 51.9307 65.8837 52.3413 65.9212C53.2957 65.9719 54.2632 65.9944 55.2157 65.9006C55.2513 65.8425 55.3207 65.7281 55.3563 65.67C55.39 64.7325 55.5044 63.75 55.2869 62.835C54.265 62.6662 53.1681 62.6737 52.1444 62.8275ZM58.5213 62.7806C58.1913 63.0469 58.3656 63.5644 58.3094 63.9375C58.3656 64.5712 58.1819 65.2837 58.4556 65.8669C59.2038 66.0469 59.9931 65.9194 60.7581 65.9569C61.045 65.9212 61.4181 66.0281 61.6281 65.7712C61.7388 64.9706 61.6863 64.1569 61.6769 63.3506C61.6638 63.1144 61.6675 62.7206 61.3188 62.76C60.3888 62.7225 59.4494 62.6925 58.5213 62.7806ZM64.7219 62.8669C64.4875 63.7575 64.6281 64.7194 64.6281 65.6362C64.6113 66.0637 65.1475 65.9794 65.425 66.0037C66.2238 65.9662 67.045 66.0975 67.8269 65.9156L67.9244 65.7994C67.9675 64.8319 68.0875 63.8081 67.8513 62.8669C66.8219 62.7319 65.7494 62.7281 64.7219 62.8669ZM55.5794 69.3056C55.2513 69.4312 55.3863 69.8512 55.3394 70.1194C55.3694 71.8669 55.3057 73.6181 55.3694 75.3637C55.3675 75.7181 55.8063 75.6881 56.05 75.7012C57.1113 75.6844 58.1744 75.7444 59.2338 75.6712C59.5825 75.6769 59.5581 75.2644 59.5694 75.0225C59.5694 73.3219 59.5694 71.6231 59.5694 69.9244C59.5694 69.6787 59.5675 69.2869 59.23 69.2869C58.015 69.2512 56.7888 69.2156 55.5794 69.3056ZM60.6156 69.3056C60.295 69.4369 60.4206 69.84 60.3775 70.1081C60.4169 71.8631 60.3325 73.6219 60.415 75.375C60.4113 75.7331 60.865 75.6806 61.1031 75.7031C62.1663 75.6862 63.2331 75.7425 64.2925 75.6694C64.6206 75.66 64.5981 75.2494 64.6094 75.0187C64.6019 73.2562 64.6225 71.4937 64.5981 69.7331C64.6375 69.4594 64.4219 69.2287 64.1444 69.2737C62.9688 69.27 61.7856 69.21 60.6156 69.3056Z" fill="#8D131E"/>
<path d="M38.1959 52.6331C41.2053 51.7556 44.2221 50.895 47.2315 50.0212C47.2315 59.6962 47.2334 69.3731 47.2315 79.05C44.3609 79.0406 41.4903 79.0687 38.6196 79.0387C37.8003 79.0425 37.1459 78.2569 37.204 77.4562C37.1946 69.6975 37.204 61.9369 37.2003 54.1762C37.1534 53.5144 37.5246 52.8094 38.1959 52.6331ZM40.7215 56.2706C40.4084 56.7506 40.6165 57.4012 40.5546 57.9487C40.6165 58.4119 40.4065 58.995 40.744 59.3737C41.7096 59.4694 42.694 59.4525 43.6596 59.385C43.714 59.3437 43.8209 59.2594 43.8734 59.2162C43.9165 58.2637 44.0421 57.2362 43.804 56.3175C42.8159 56.1056 41.734 56.1975 40.7215 56.2706ZM40.7009 62.7956C40.4065 63.4987 40.6146 64.3144 40.5565 65.0606C40.5903 65.3475 40.4665 65.8912 40.8865 65.9269C41.8446 65.9644 42.814 66.0037 43.7684 65.895C43.9971 65.535 43.9015 65.085 43.9296 64.6819C43.8996 64.0725 44.0028 63.4406 43.8284 62.8462C42.8178 62.6287 41.7321 62.7225 40.7009 62.7956ZM40.7703 69.3094C40.7309 69.3431 40.6521 69.4125 40.6128 69.4481C40.5171 70.3894 40.5171 71.355 40.6128 72.2962C40.9803 72.6262 41.5521 72.4181 42.0021 72.4819C42.6059 72.4219 43.294 72.6206 43.8453 72.3356C43.9934 71.4206 43.9371 70.47 43.8828 69.5456C43.8171 69.1837 43.3915 69.2944 43.1309 69.2587C42.3453 69.2719 41.5521 69.2044 40.7703 69.3094Z" fill="#8D131E"/>
<path d="M72.7695 52.8993C75.6402 52.9106 78.5127 52.8787 81.3833 52.9125C82.2289 52.9106 82.872 53.73 82.7989 54.5456C82.8008 62.1825 82.8045 69.8175 82.797 77.4543C82.8552 78.2568 82.197 79.0406 81.3758 79.0387C78.507 79.0706 75.6383 79.0387 72.7695 79.05C72.7695 70.3331 72.7695 61.6162 72.7695 52.8993ZM76.1952 56.3231C75.957 56.9362 76.1239 57.6506 76.0733 58.305C76.1408 58.6425 75.9252 59.235 76.3433 59.3812C77.3089 59.4562 78.2952 59.4768 79.257 59.3681C79.2927 59.3231 79.362 59.2331 79.3977 59.1881C79.4783 58.2581 79.4839 57.3075 79.3883 56.3775C78.9908 56.0906 78.4545 56.2481 77.9989 56.205C77.4027 56.2556 76.752 56.0925 76.1952 56.3231ZM76.317 62.8237C76.2664 62.8687 76.167 62.9568 76.1183 63.0018C76.0508 63.93 76.0433 64.8712 76.122 65.8012C76.1764 65.8425 76.2852 65.9231 76.3395 65.9643C77.2658 66.0337 78.2033 66.0262 79.1295 65.97C79.5533 65.9212 79.4014 65.3568 79.4483 65.0662C79.3714 64.3387 79.617 63.51 79.2833 62.8481C78.3027 62.7318 77.3014 62.7656 76.317 62.8237ZM76.1727 69.4275C75.9814 70.3256 76.0883 71.2706 76.1052 72.1856C76.0733 72.5062 76.4577 72.5156 76.677 72.525C77.5339 72.5193 78.3983 72.5756 79.2514 72.4762C79.6002 72.1106 79.3789 71.5162 79.4483 71.0587C79.3864 70.5112 79.5908 69.8568 79.2833 69.3806C78.2633 69.2887 77.1683 69.2043 76.1727 69.4275Z" fill="#8D131E"/>
</svg>
