<svg width="39" height="26" viewBox="0 0 39 26" fill="none" xmlns="http://www.w3.org/2000/svg">
<path d="M36.0792 0.00842285H2.92081C1.30764 0.00842285 0 1.33855 0 2.97946V23.0286C0 24.6694 1.30764 25.9996 2.92081 25.9996H36.0792C37.6923 25.9996 39 24.6695 39 23.0286V2.97946C39 1.33855 37.6924 0.00842285 36.0792 0.00842285Z" fill="#F5F5F5"/>
<path d="M0.15918 1.99934H38.8378C38.442 0.835796 37.3561 0 36.0777 0H2.91934C1.64087 0 0.555045 0.835796 0.15918 1.99934Z" fill="#FF4B55"/>
<path d="M39 7.99744H0V9.9967H39V7.99744Z" fill="#FF4B55"/>
<path d="M39 3.99854H0V5.9978H39V3.99854Z" fill="#FF4B55"/>
<path d="M0 13.3114C0 13.6891 0.301108 13.9954 0.672446 13.9954H39V11.9961H0V13.3114Z" fill="#FF4B55"/>
<path d="M39 19.9938H0V21.9931H39V19.9938Z" fill="#FF4B55"/>
<path d="M38.8379 23.9919H0.15918C0.555045 25.1555 1.64095 25.9913 2.91934 25.9913H36.0777C37.3562 25.9913 38.442 25.1555 38.8379 23.9919Z" fill="#FF4B55"/>
<path d="M39 15.995H0V17.9943H39V15.995Z" fill="#FF4B55"/>
<path d="M0.672445 13.9953H17.4828C17.8542 13.9953 18.1553 13.689 18.1553 13.3113V0.684009C18.1553 0.306208 17.8542 0 17.4828 0H2.92081C1.30764 7.74818e-05 0 1.33021 0 2.97112V13.3113C0 13.6891 0.301107 13.9953 0.672445 13.9953Z" fill="#41479B"/>
<path d="M1.88851 1.57144L2.03735 2.02548L2.50787 2.02913C2.5688 2.02967 2.59402 2.1087 2.54504 2.1455L2.16654 2.42978L2.30852 2.88607C2.32696 2.94511 2.26076 2.99408 2.21118 2.95798L1.82841 2.67974L1.44565 2.95805C1.39606 2.99416 1.33002 2.94519 1.3483 2.88615L1.49029 2.42986L1.11179 2.14558C1.06281 2.1087 1.08802 2.02967 1.14896 2.0292L1.61947 2.02556L1.76831 1.57152C1.78751 1.51263 1.86916 1.51263 1.88851 1.57144Z" fill="#F5F5F5"/>
<path d="M1.88656 3.94516L2.0354 4.3992L2.50591 4.40285C2.56685 4.40339 2.59206 4.48234 2.54308 4.51922L2.16459 4.80358L2.30657 5.25987C2.325 5.31891 2.25881 5.36788 2.20922 5.33178L1.82646 5.05354L1.4437 5.33185C1.39411 5.36788 1.32807 5.31899 1.34635 5.25995L1.48833 4.80366L1.10983 4.5193C1.06086 4.48242 1.08607 4.40347 1.14701 4.40292L1.61752 4.39928L1.76636 3.94524C1.78555 3.88643 1.86721 3.88643 1.88656 3.94516Z" fill="#F5F5F5"/>
<path d="M1.88656 6.32034L2.0354 6.77439L2.50591 6.77803C2.56685 6.77857 2.59206 6.85752 2.54308 6.89441L2.16459 7.17876L2.30657 7.63505C2.325 7.69409 2.25881 7.74306 2.20922 7.70696L1.82646 7.42872L1.4437 7.70703C1.39411 7.74306 1.32807 7.69425 1.34635 7.63513L1.48833 7.17884L1.10983 6.89448C1.06086 6.8576 1.08607 6.77865 1.14701 6.7781L1.61752 6.77446L1.76636 6.32042C1.78555 6.26153 1.86721 6.26153 1.88656 6.32034Z" fill="#F5F5F5"/>
<path d="M1.88656 8.69559L2.0354 9.14963L2.50591 9.15327C2.56685 9.15381 2.59206 9.23284 2.54308 9.26965L2.16459 9.55401L2.30657 10.0103C2.325 10.0693 2.25881 10.1183 2.20922 10.0822L1.82646 9.80396L1.4437 10.0823C1.39411 10.1183 1.32807 10.0694 1.34635 10.0104L1.48833 9.55408L1.10983 9.26973C1.06086 9.233 1.08607 9.15389 1.14701 9.15335L1.61752 9.14971L1.76636 8.69566C1.78555 8.63678 1.86721 8.63678 1.88656 8.69559Z" fill="#F5F5F5"/>
<path d="M1.88656 11.0704L2.0354 11.5244L2.50591 11.5281C2.56685 11.5286 2.59206 11.6076 2.54308 11.6445L2.16459 11.9288L2.30657 12.3851C2.325 12.4442 2.25881 12.4931 2.20922 12.457L1.82646 12.1788L1.4437 12.4571C1.39411 12.4931 1.32807 12.4442 1.34635 12.3852L1.48833 11.9289L1.10983 11.6445C1.06086 11.6077 1.08607 11.5287 1.14701 11.5282L1.61752 11.5245L1.76636 11.0705C1.78555 11.0117 1.86721 11.0117 1.88656 11.0704Z" fill="#F5F5F5"/>
<path d="M3.70004 2.73448L3.84888 3.18852L4.31939 3.19216C4.38033 3.19271 4.40554 3.27174 4.35656 3.30854L3.97806 3.5929L4.12005 4.04919C4.13848 4.10823 4.07229 4.1572 4.0227 4.12109L3.63994 3.84278L3.25717 4.12109C3.20758 4.15712 3.14154 4.10823 3.15982 4.04919L3.30181 3.5929L2.92331 3.30854C2.87433 3.27166 2.89955 3.19271 2.96048 3.19216L3.431 3.18852L3.57984 2.73448C3.59903 2.67575 3.68076 2.67575 3.70004 2.73448Z" fill="#F5F5F5"/>
<path d="M3.70004 5.10966L3.84888 5.5637L4.31939 5.56734C4.38033 5.56789 4.40554 5.64692 4.35656 5.68372L3.97806 5.96808L4.12005 6.42437C4.13848 6.48341 4.07229 6.53238 4.0227 6.49627L3.63994 6.21796L3.25717 6.49627C3.20758 6.5323 3.14154 6.48349 3.15982 6.42437L3.30181 5.96808L2.92331 5.68372C2.87433 5.647 2.89955 5.56789 2.96048 5.56734L3.431 5.5637L3.57984 5.10966C3.59903 5.05085 3.68076 5.05085 3.70004 5.10966Z" fill="#F5F5F5"/>
<path d="M3.70004 7.48478L3.84888 7.93882L4.31939 7.94246C4.38033 7.94301 4.40554 8.02196 4.35656 8.05884L3.97806 8.3432L4.12005 8.79949C4.13848 8.85853 4.07229 8.9075 4.0227 8.87139L3.63994 8.59308L3.25717 8.87139C3.20758 8.90742 3.14154 8.85853 3.15982 8.79949L3.30181 8.3432L2.92331 8.05884C2.87433 8.02196 2.89955 7.94301 2.96048 7.94246L3.431 7.93882L3.57984 7.48478C3.59903 7.42597 3.68076 7.42597 3.70004 7.48478Z" fill="#F5F5F5"/>
<path d="M3.70004 9.85997L3.84888 10.314L4.31939 10.3177C4.38033 10.3182 4.40554 10.3971 4.35656 10.434L3.97806 10.7184L4.12005 11.1747C4.13848 11.2337 4.07229 11.2827 4.0227 11.2466L3.63994 10.9683L3.25717 11.2466C3.20758 11.2827 3.14154 11.2337 3.15982 11.1747L3.30181 10.7184L2.92331 10.434C2.87433 10.3971 2.89955 10.3182 2.96048 10.3177L3.431 10.314L3.57984 9.85997C3.59903 9.80124 3.68076 9.80124 3.70004 9.85997Z" fill="#F5F5F5"/>
<path d="M5.51156 1.56999L5.6604 2.02403L6.13091 2.02767C6.19185 2.02821 6.21706 2.10724 6.16808 2.14405L5.78959 2.42833L5.93157 2.88462C5.95 2.94366 5.88381 2.99263 5.83422 2.95652L5.45146 2.67821L5.0687 2.95652C5.01911 2.99263 4.95307 2.94366 4.97135 2.88462L5.11333 2.42833L4.73483 2.14405C4.68586 2.10717 4.71107 2.02813 4.77201 2.02767L5.24252 2.02403L5.39136 1.56999C5.41055 1.51118 5.49229 1.51118 5.51156 1.56999Z" fill="#F5F5F5"/>
<path d="M5.51156 3.94517L5.6604 4.39921L6.13091 4.40286C6.19185 4.4034 6.21706 4.48235 6.16808 4.51923L5.78959 4.80359L5.93157 5.25988C5.95 5.31892 5.88381 5.36789 5.83422 5.33179L5.45146 5.05347L5.0687 5.33179C5.01911 5.36781 4.95307 5.31892 4.97135 5.25988L5.11333 4.80359L4.73483 4.51923C4.68586 4.48235 4.71107 4.4034 4.77201 4.40286L5.24252 4.39921L5.39136 3.94517C5.41055 3.88644 5.49229 3.88644 5.51156 3.94517Z" fill="#F5F5F5"/>
<path d="M5.51156 6.32035L5.6604 6.77439L6.13091 6.77804C6.19185 6.77858 6.21706 6.85753 6.16808 6.89441L5.78959 7.17877L5.93157 7.63506C5.95 7.6941 5.88381 7.74307 5.83422 7.70697L5.45146 7.42865L5.0687 7.70697C5.01911 7.743 4.95307 7.69418 4.97135 7.63506L5.11333 7.17877L4.73483 6.89441C4.68586 6.85753 4.71107 6.77858 4.77201 6.77804L5.24252 6.77439L5.39136 6.32035C5.41055 6.26154 5.49229 6.26154 5.51156 6.32035Z" fill="#F5F5F5"/>
<path d="M5.51156 8.6956L5.6604 9.14964L6.13091 9.15328C6.19185 9.15382 6.21706 9.23285 6.16808 9.26966L5.78959 9.55402L5.93157 10.0103C5.95 10.0693 5.88381 10.1183 5.83422 10.0822L5.45146 9.8039L5.0687 10.0822C5.01911 10.1182 4.95307 10.0693 4.97135 10.0103L5.11333 9.55402L4.73483 9.26966C4.68586 9.23293 4.71107 9.15382 4.77201 9.15328L5.24252 9.14964L5.39136 8.6956C5.41055 8.63679 5.49229 8.63679 5.51156 8.6956Z" fill="#F5F5F5"/>
<path d="M5.51156 11.0704L5.6604 11.5245L6.13091 11.5281C6.19185 11.5286 6.21706 11.6076 6.16808 11.6445L5.78959 11.9288L5.93157 12.3851C5.95 12.4442 5.88381 12.4931 5.83422 12.457L5.45146 12.1787L5.0687 12.457C5.01911 12.4931 4.95307 12.4442 4.97135 12.3851L5.11333 11.9288L4.73483 11.6445C4.68586 11.6076 4.71107 11.5286 4.77201 11.5281L5.24252 11.5245L5.39136 11.0704C5.41055 11.0117 5.49229 11.0117 5.51156 11.0704Z" fill="#F5F5F5"/>
<path d="M7.32308 2.73448L7.47192 3.18852L7.94244 3.19216C8.00337 3.19271 8.02859 3.27174 7.97961 3.30854L7.60111 3.5929L7.74309 4.04919C7.76153 4.10823 7.69533 4.1572 7.64575 4.12109L7.26298 3.84278L6.88022 4.12109C6.83063 4.15712 6.76459 4.10823 6.78287 4.04919L6.92486 3.5929L6.54636 3.30854C6.49738 3.27166 6.52259 3.19271 6.58353 3.19216L7.05404 3.18852L7.20288 2.73448C7.222 2.67575 7.30381 2.67575 7.32308 2.73448Z" fill="#F5F5F5"/>
<path d="M7.32308 5.10966L7.47192 5.5637L7.94244 5.56734C8.00337 5.56789 8.02859 5.64692 7.97961 5.68372L7.60111 5.96808L7.74309 6.42437C7.76153 6.48341 7.69533 6.53238 7.64575 6.49627L7.26298 6.21796L6.88022 6.49627C6.83063 6.5323 6.76459 6.48349 6.78287 6.42437L6.92486 5.96808L6.54636 5.68372C6.49738 5.647 6.52259 5.56789 6.58353 5.56734L7.05404 5.5637L7.20288 5.10966C7.222 5.05085 7.30381 5.05085 7.32308 5.10966Z" fill="#F5F5F5"/>
<path d="M7.32308 7.48478L7.47192 7.93882L7.94244 7.94246C8.00337 7.94301 8.02859 8.02196 7.97961 8.05884L7.60111 8.3432L7.74309 8.79949C7.76153 8.85853 7.69533 8.9075 7.64575 8.87139L7.26298 8.59308L6.88022 8.87139C6.83063 8.90742 6.76459 8.85853 6.78287 8.79949L6.92486 8.3432L6.54636 8.05884C6.49738 8.02196 6.52259 7.94301 6.58353 7.94246L7.05404 7.93882L7.20288 7.48478C7.222 7.42597 7.30381 7.42597 7.32308 7.48478Z" fill="#F5F5F5"/>
<path d="M7.32308 9.85997L7.47192 10.314L7.94244 10.3177C8.00337 10.3182 8.02859 10.3971 7.97961 10.434L7.60111 10.7184L7.74309 11.1747C7.76153 11.2337 7.69533 11.2827 7.64575 11.2466L7.26298 10.9683L6.88022 11.2466C6.83063 11.2827 6.76459 11.2337 6.78287 11.1747L6.92486 10.7184L6.54636 10.434C6.49738 10.3971 6.52259 10.3182 6.58353 10.3177L7.05404 10.314L7.20288 9.85997C7.222 9.80124 7.30381 9.80124 7.32308 9.85997Z" fill="#F5F5F5"/>
<path d="M9.13517 1.56998L9.28401 2.02402L9.75452 2.02766C9.81546 2.0282 9.84067 2.10723 9.79169 2.14404L9.4132 2.42832L9.55518 2.88461C9.57362 2.94365 9.50742 2.99262 9.45783 2.95651L9.07499 2.67827L8.69223 2.95659C8.64264 2.9927 8.5766 2.94373 8.59488 2.88469L8.73687 2.4284L8.35837 2.14412C8.30939 2.10723 8.3346 2.0282 8.39554 2.02774L8.86605 2.0241L9.01489 1.57005C9.03417 1.51117 9.1159 1.51117 9.13517 1.56998Z" fill="#F5F5F5"/>
<path d="M9.13517 3.94517L9.28401 4.39921L9.75452 4.40286C9.81546 4.4034 9.84067 4.48235 9.79169 4.51923L9.4132 4.80359L9.55518 5.25988C9.57362 5.31892 9.50742 5.36789 9.45783 5.33179L9.07499 5.05347L8.69223 5.33179C8.64264 5.36781 8.5766 5.31892 8.59488 5.25988L8.73687 4.80359L8.35837 4.51923C8.30939 4.48235 8.3346 4.4034 8.39554 4.40286L8.86605 4.39921L9.01489 3.94517C9.03417 3.88644 9.1159 3.88644 9.13517 3.94517Z" fill="#F5F5F5"/>
<path d="M9.13517 6.32036L9.28401 6.7744L9.75452 6.77805C9.81546 6.77859 9.84067 6.85754 9.79169 6.89442L9.4132 7.17878L9.55518 7.63507C9.57362 7.69411 9.50742 7.74308 9.45783 7.70698L9.07499 7.42858L8.69223 7.7069C8.64264 7.74293 8.5766 7.69404 8.59488 7.635L8.73687 7.1787L8.35837 6.89435C8.30939 6.85747 8.3346 6.77851 8.39554 6.77797L8.86605 6.77433L9.01489 6.32028C9.03417 6.26155 9.1159 6.26155 9.13517 6.32036Z" fill="#F5F5F5"/>
<path d="M9.13517 8.6956L9.28401 9.14964L9.75452 9.15328C9.81546 9.15382 9.84067 9.23285 9.79169 9.26966L9.4132 9.55402L9.55518 10.0103C9.57362 10.0693 9.50742 10.1183 9.45783 10.0822L9.07499 9.8039L8.69223 10.0822C8.64264 10.1182 8.5766 10.0693 8.59488 10.0103L8.73687 9.55402L8.35837 9.26966C8.30939 9.23293 8.3346 9.15382 8.39554 9.15328L8.86605 9.14964L9.01489 8.6956C9.03417 8.63679 9.1159 8.63679 9.13517 8.6956Z" fill="#F5F5F5"/>
<path d="M9.13517 11.0704L9.28401 11.5245L9.75452 11.5281C9.81546 11.5286 9.84067 11.6076 9.79169 11.6445L9.4132 11.9288L9.55518 12.3851C9.57362 12.4442 9.50742 12.4931 9.45783 12.457L9.07499 12.1787L8.69223 12.457C8.64264 12.4931 8.5766 12.4442 8.59488 12.3851L8.73687 11.9288L8.35837 11.6445C8.30939 11.6076 8.3346 11.5286 8.39554 11.5281L8.86605 11.5245L9.01489 11.0704C9.03417 11.0117 9.1159 11.0117 9.13517 11.0704Z" fill="#F5F5F5"/>
<path d="M10.9486 2.73448L11.0974 3.18852L11.5679 3.19216C11.6289 3.19271 11.6541 3.27174 11.6051 3.30854L11.2266 3.5929L11.3686 4.04919C11.387 4.10823 11.3208 4.1572 11.2712 4.12109L10.8885 3.84278L10.5057 4.12109C10.4561 4.15712 10.3901 4.10823 10.4084 4.04919L10.5503 3.5929L10.1718 3.30854C10.1229 3.27166 10.1481 3.19271 10.209 3.19216L10.6795 3.18852L10.8284 2.73448C10.8476 2.67575 10.9293 2.67575 10.9486 2.73448Z" fill="#F5F5F5"/>
<path d="M10.9486 5.10966L11.0974 5.5637L11.5679 5.56734C11.6289 5.56789 11.6541 5.64692 11.6051 5.68372L11.2266 5.96808L11.3686 6.42437C11.387 6.48341 11.3208 6.53238 11.2712 6.49627L10.8885 6.21796L10.5057 6.49627C10.4561 6.5323 10.3901 6.48349 10.4084 6.42437L10.5503 5.96808L10.1718 5.68372C10.1229 5.647 10.1481 5.56789 10.209 5.56734L10.6795 5.5637L10.8284 5.10966C10.8476 5.05085 10.9293 5.05085 10.9486 5.10966Z" fill="#F5F5F5"/>
<path d="M10.9486 7.48478L11.0974 7.93882L11.5679 7.94246C11.6289 7.94301 11.6541 8.02196 11.6051 8.05884L11.2266 8.3432L11.3686 8.79949C11.387 8.85853 11.3208 8.9075 11.2712 8.87139L10.8885 8.59308L10.5057 8.87139C10.4561 8.90742 10.3901 8.85853 10.4084 8.79949L10.5503 8.3432L10.1718 8.05884C10.1229 8.02196 10.1481 7.94301 10.209 7.94246L10.6795 7.93882L10.8284 7.48478C10.8476 7.42597 10.9293 7.42597 10.9486 7.48478Z" fill="#F5F5F5"/>
<path d="M10.9486 9.85997L11.0974 10.314L11.5679 10.3177C11.6289 10.3182 11.6541 10.3971 11.6051 10.434L11.2266 10.7184L11.3686 11.1747C11.387 11.2337 11.3208 11.2827 11.2712 11.2466L10.8885 10.9683L10.5057 11.2466C10.4561 11.2827 10.3901 11.2337 10.4084 11.1747L10.5503 10.7184L10.1718 10.434C10.1229 10.3971 10.1481 10.3182 10.209 10.3177L10.6795 10.314L10.8284 9.85997C10.8476 9.80124 10.9293 9.80124 10.9486 9.85997Z" fill="#F5F5F5"/>
<path d="M12.7601 1.56999L12.9089 2.02403L13.3794 2.02767C13.4404 2.02821 13.4656 2.10724 13.4166 2.14405L13.0381 2.42833L13.1801 2.88462C13.1985 2.94366 13.1323 2.99263 13.0828 2.95652L12.7 2.67821L12.3172 2.95652C12.2676 2.99263 12.2016 2.94366 12.2199 2.88462L12.3619 2.42833L11.9834 2.14405C11.9344 2.10717 11.9596 2.02813 12.0205 2.02767L12.4911 2.02403L12.6399 1.56999C12.659 1.51118 12.7408 1.51118 12.7601 1.56999Z" fill="#F5F5F5"/>
<path d="M12.7601 3.94517L12.9089 4.39921L13.3794 4.40286C13.4404 4.4034 13.4656 4.48235 13.4166 4.51923L13.0381 4.80359L13.1801 5.25988C13.1985 5.31892 13.1323 5.36789 13.0828 5.33179L12.7 5.05347L12.3172 5.33179C12.2676 5.36781 12.2016 5.31892 12.2199 5.25988L12.3619 4.80359L11.9834 4.51923C11.9344 4.48235 11.9596 4.4034 12.0205 4.40286L12.4911 4.39921L12.6399 3.94517C12.659 3.88644 12.7408 3.88644 12.7601 3.94517Z" fill="#F5F5F5"/>
<path d="M12.7601 6.32035L12.9089 6.77439L13.3794 6.77804C13.4404 6.77858 13.4656 6.85753 13.4166 6.89441L13.0381 7.17877L13.1801 7.63506C13.1985 7.6941 13.1323 7.74307 13.0828 7.70697L12.7 7.42865L12.3172 7.70697C12.2676 7.743 12.2016 7.69418 12.2199 7.63506L12.3619 7.17877L11.9834 6.89441C11.9344 6.85753 11.9596 6.77858 12.0205 6.77804L12.4911 6.77439L12.6399 6.32035C12.659 6.26154 12.7408 6.26154 12.7601 6.32035Z" fill="#F5F5F5"/>
<path d="M12.7601 8.6956L12.9089 9.14964L13.3794 9.15328C13.4404 9.15382 13.4656 9.23285 13.4166 9.26966L13.0381 9.55402L13.1801 10.0103C13.1985 10.0693 13.1323 10.1183 13.0828 10.0822L12.7 9.8039L12.3172 10.0822C12.2676 10.1182 12.2016 10.0693 12.2199 10.0103L12.3619 9.55402L11.9834 9.26966C11.9344 9.23293 11.9596 9.15382 12.0205 9.15328L12.4911 9.14964L12.6399 8.6956C12.659 8.63679 12.7408 8.63679 12.7601 8.6956Z" fill="#F5F5F5"/>
<path d="M12.7601 11.0704L12.9089 11.5245L13.3794 11.5281C13.4404 11.5286 13.4656 11.6076 13.4166 11.6445L13.0381 11.9288L13.1801 12.3851C13.1985 12.4442 13.1323 12.4931 13.0828 12.457L12.7 12.1787L12.3172 12.457C12.2676 12.4931 12.2016 12.4442 12.2199 12.3851L12.3619 11.9288L11.9834 11.6445C11.9344 11.6076 11.9596 11.5286 12.0205 11.5281L12.4911 11.5245L12.6399 11.0704C12.659 11.0117 12.7408 11.0117 12.7601 11.0704Z" fill="#F5F5F5"/>
<path d="M14.5741 2.73448L14.7229 3.18852L15.1934 3.19216C15.2544 3.19271 15.2796 3.27174 15.2306 3.30854L14.8521 3.5929L14.9941 4.04919C15.0125 4.10823 14.9463 4.1572 14.8967 4.12109L14.514 3.84278L14.1312 4.12109C14.0816 4.15712 14.0156 4.10823 14.0338 4.04919L14.1758 3.5929L13.7973 3.30854C13.7484 3.27166 13.7736 3.19271 13.8345 3.19216L14.305 3.18852L14.4539 2.73448C14.4731 2.67575 14.5548 2.67575 14.5741 2.73448Z" fill="#F5F5F5"/>
<path d="M14.5741 5.10966L14.7229 5.5637L15.1934 5.56734C15.2544 5.56789 15.2796 5.64692 15.2306 5.68372L14.8521 5.96808L14.9941 6.42437C15.0125 6.48341 14.9463 6.53238 14.8967 6.49627L14.514 6.21796L14.1312 6.49627C14.0816 6.5323 14.0156 6.48349 14.0338 6.42437L14.1758 5.96808L13.7973 5.68372C13.7484 5.647 13.7736 5.56789 13.8345 5.56734L14.305 5.5637L14.4539 5.10966C14.4731 5.05085 14.5548 5.05085 14.5741 5.10966Z" fill="#F5F5F5"/>
<path d="M14.5741 7.48478L14.7229 7.93882L15.1934 7.94246C15.2544 7.94301 15.2796 8.02196 15.2306 8.05884L14.8521 8.3432L14.9941 8.79949C15.0125 8.85853 14.9463 8.9075 14.8967 8.87139L14.514 8.59308L14.1312 8.87139C14.0816 8.90742 14.0156 8.85853 14.0338 8.79949L14.1758 8.3432L13.7973 8.05884C13.7484 8.02196 13.7736 7.94301 13.8345 7.94246L14.305 7.93882L14.4539 7.48478C14.4731 7.42597 14.5548 7.42597 14.5741 7.48478Z" fill="#F5F5F5"/>
<path d="M14.5741 9.85997L14.7229 10.314L15.1934 10.3177C15.2544 10.3182 15.2796 10.3971 15.2306 10.434L14.8521 10.7184L14.9941 11.1747C15.0125 11.2337 14.9463 11.2827 14.8967 11.2466L14.514 10.9683L14.1312 11.2466C14.0816 11.2827 14.0156 11.2337 14.0338 11.1747L14.1758 10.7184L13.7973 10.434C13.7484 10.3971 13.7736 10.3182 13.8345 10.3177L14.305 10.314L14.4539 9.85997C14.4731 9.80124 14.5548 9.80124 14.5741 9.85997Z" fill="#F5F5F5"/>
<path d="M16.3836 1.56999L16.5325 2.02403L17.003 2.02767C17.0639 2.02821 17.0891 2.10724 17.0402 2.14405L16.6617 2.42833L16.8036 2.88462C16.8221 2.94366 16.7559 2.99263 16.7063 2.95652L16.3235 2.67821L15.9408 2.95652C15.8912 2.99263 15.8251 2.94366 15.8434 2.88462L15.9854 2.42833L15.6069 2.14405C15.5579 2.10717 15.5831 2.02813 15.6441 2.02767L16.1146 2.02403L16.2634 1.56999C16.2826 1.51118 16.3643 1.51118 16.3836 1.56999Z" fill="#F5F5F5"/>
<path d="M16.3836 3.94517L16.5325 4.39921L17.003 4.40286C17.0639 4.4034 17.0891 4.48235 17.0402 4.51923L16.6617 4.80359L16.8036 5.25988C16.8221 5.31892 16.7559 5.36789 16.7063 5.33179L16.3235 5.05347L15.9408 5.33179C15.8912 5.36781 15.8251 5.31892 15.8434 5.25988L15.9854 4.80359L15.6069 4.51923C15.5579 4.48235 15.5831 4.4034 15.6441 4.40286L16.1146 4.39921L16.2634 3.94517C16.2826 3.88644 16.3643 3.88644 16.3836 3.94517Z" fill="#F5F5F5"/>
<path d="M16.3836 6.32035L16.5325 6.77439L17.003 6.77804C17.0639 6.77858 17.0891 6.85753 17.0402 6.89441L16.6617 7.17877L16.8036 7.63506C16.8221 7.6941 16.7559 7.74307 16.7063 7.70697L16.3235 7.42865L15.9408 7.70697C15.8912 7.743 15.8251 7.69418 15.8434 7.63506L15.9854 7.17877L15.6069 6.89441C15.5579 6.85753 15.5831 6.77858 15.6441 6.77804L16.1146 6.77439L16.2634 6.32035C16.2826 6.26154 16.3643 6.26154 16.3836 6.32035Z" fill="#F5F5F5"/>
<path d="M16.3836 8.6956L16.5325 9.14964L17.003 9.15328C17.0639 9.15382 17.0891 9.23285 17.0402 9.26966L16.6617 9.55402L16.8036 10.0103C16.8221 10.0693 16.7559 10.1183 16.7063 10.0822L16.3235 9.8039L15.9408 10.0822C15.8912 10.1182 15.8251 10.0693 15.8434 10.0103L15.9854 9.55402L15.6069 9.26966C15.5579 9.23293 15.5831 9.15382 15.6441 9.15328L16.1146 9.14964L16.2634 8.6956C16.2826 8.63679 16.3643 8.63679 16.3836 8.6956Z" fill="#F5F5F5"/>
<path d="M16.3836 11.0704L16.5325 11.5245L17.003 11.5281C17.0639 11.5286 17.0891 11.6076 17.0402 11.6445L16.6617 11.9288L16.8036 12.3851C16.8221 12.4442 16.7559 12.4931 16.7063 12.457L16.3235 12.1787L15.9408 12.457C15.8912 12.4931 15.8251 12.4442 15.8434 12.3851L15.9854 11.9288L15.6069 11.6445C15.5579 11.6076 15.5831 11.5286 15.6441 11.5281L16.1146 11.5245L16.2634 11.0704C16.2826 11.0117 16.3643 11.0117 16.3836 11.0704Z" fill="#F5F5F5"/>
</svg>
