<svg width="39" height="26" viewBox="0 0 39 26" fill="none" xmlns="http://www.w3.org/2000/svg">
<path d="M1.57447 0.346337C2.13738 0.0317006 2.79551 -0.0116978 3.42469 0.00225161C14.1405 0.00380154 24.8564 0.00380154 35.573 0.00225161C36.1832 -0.00937291 36.82 0.0262757 37.3722 0.318439C38.3472 0.795044 38.9825 1.85752 39 2.95255V23.0932C38.9634 23.9619 38.5666 24.8152 37.8864 25.3507C37.3478 25.7994 36.6471 26.0001 35.9577 25.9978C25.2411 26.0001 14.5245 25.9978 3.80707 25.9985C3.35232 25.9954 2.89377 26.0195 2.44283 25.9474C1.57828 25.8133 0.79752 25.2468 0.377051 24.4688C0.138633 24.0549 0.0388477 23.5768 0 23.1025V2.95333C0.0175195 1.87922 0.626895 0.833792 1.57447 0.346337ZM15.8666 6.691C15.9824 6.83592 16.233 6.87234 16.3381 6.69642C16.4638 6.5174 16.2756 6.35311 16.1842 6.21517C16.2749 6.0563 16.431 5.9478 16.5125 5.78506C16.5453 5.59287 16.3313 5.41308 16.1545 5.4991C15.6884 5.65254 15.5147 6.33839 15.8666 6.691ZM8.40328 5.83543C8.23494 6.04777 8.25018 6.57708 8.60742 6.5701C8.86488 6.53523 8.86945 6.22524 8.84127 6.02298C8.84508 5.80444 8.55334 5.67501 8.40328 5.83543ZM11.0678 5.82303C10.8842 5.9509 10.9718 6.28724 11.2003 6.29499C11.393 6.31591 11.6817 6.34149 11.7526 6.1028C11.8211 5.71919 11.2978 5.68819 11.0678 5.82303ZM14.1642 6.32676C14.1101 6.56313 14.2495 6.77624 14.3752 6.95991C14.059 7.22805 13.7132 7.46054 13.4131 7.74805C13.26 7.89297 13.3743 8.15569 13.5677 8.18901C13.7932 8.15801 13.9547 7.97434 14.1306 7.84415C14.5168 7.51479 14.9442 7.23347 15.3022 6.87234C15.5916 6.57475 15.4758 6.02763 15.114 5.84783C14.7423 5.62697 14.2167 5.89356 14.1642 6.32676ZM17.614 5.79668C17.4746 5.92145 17.454 6.12915 17.3954 6.29964C17.3657 6.44533 17.2857 6.63442 17.4197 6.75222C17.5424 6.88396 17.7755 6.82662 17.8364 6.66077C17.9248 6.45773 17.9849 6.24074 18.0154 6.02143C18.0436 5.81838 17.7679 5.67424 17.614 5.79668ZM9.95262 6.1524C9.8673 6.28259 9.94348 6.43913 9.96633 6.57708C10.1621 7.28152 10.1629 8.01774 10.2238 8.74156C10.1171 8.78341 10.0105 8.82603 9.90463 8.86866C9.89549 8.35795 9.92291 7.84725 9.89244 7.33732C9.88482 6.95449 9.50016 6.64605 9.13301 6.72587C8.8367 6.76849 8.59676 7.04361 8.58914 7.34817C8.55715 7.77828 8.59371 8.21071 8.57848 8.64237C8.44594 8.19908 8.42689 7.72015 8.28445 7.27687C8.21438 7.02191 7.79086 7.08701 7.79467 7.35049C7.82971 7.7713 7.95234 8.17971 8.02014 8.59664C8.07879 8.85083 8.10545 9.16237 8.34234 9.31581C8.63941 9.51033 9.06369 9.26467 9.09645 8.9198C9.14367 8.3998 9.07436 7.87437 9.12615 7.35514C9.1193 7.20248 9.35848 7.22263 9.35771 7.34817C9.40494 7.86352 9.34477 8.38198 9.38437 8.89811C9.39809 9.14222 9.58928 9.36929 9.83074 9.40106C9.96861 9.40183 10.1019 9.36541 10.2367 9.34294C10.2162 10.0203 10.2253 10.6991 10.1842 11.3765C10.1804 11.5276 10.1598 11.6841 10.2025 11.8321C10.3175 12.0414 10.6755 11.9693 10.69 11.7291C10.7768 10.8417 10.7349 9.94741 10.7707 9.05775C11.019 9.06317 11.2574 9.15229 11.5058 9.14765C11.9293 9.07712 12.2812 8.63539 12.1974 8.19366C12.1479 7.92087 12.042 7.66358 11.9559 7.40242C12.1471 7.36134 12.3985 7.19085 12.2477 6.96766C12.0588 6.78942 11.8104 6.6879 11.572 6.59645C11.409 6.5205 11.1965 6.6941 11.2453 6.87389C11.345 7.3536 11.569 7.79688 11.6703 8.27581C11.7099 8.44475 11.5271 8.65089 11.3542 8.59432C11.1516 8.55479 10.9482 8.52225 10.7425 8.5207C10.6717 7.7434 10.6671 6.94441 10.4074 6.20044C10.3487 6.0036 10.0532 5.97803 9.95262 6.1524ZM12.4 6.08575C12.2462 6.19347 12.3109 6.40813 12.3094 6.567C12.4183 7.75038 12.4693 8.9384 12.5425 10.1249C12.4114 9.96524 12.2995 9.76762 12.0991 9.69167C11.4791 9.46461 10.7166 10.1729 10.9916 10.8162C11.1645 11.1943 11.6307 11.1959 11.9727 11.1068C11.8386 11.4702 11.665 11.8352 11.3709 12.0933C11.1401 12.2932 10.8156 12.4095 10.5163 12.3219C10.2459 12.2638 10.0692 12.0112 9.98994 11.7577C9.91225 11.5159 9.93281 11.254 9.86273 11.0114C9.77514 10.8657 9.54586 10.8402 9.44074 10.9797C9.3402 11.1161 9.38285 11.3013 9.39047 11.4586C9.44455 11.9143 9.60375 12.4025 9.99375 12.673C10.4797 13.014 11.1645 12.9388 11.6193 12.5777C12.1365 12.1917 12.4054 11.5717 12.5638 10.9587C12.4876 11.8949 12.0283 12.8435 11.2239 13.3418C10.7006 13.6742 9.9092 13.582 9.55348 13.0426C9.35848 12.766 9.40266 12.4118 9.33562 12.0964C9.21984 11.8717 8.85041 11.9654 8.84965 12.2181C8.82756 12.659 8.92277 13.1294 9.20766 13.4751C9.58852 13.9377 10.2207 14.1439 10.7996 14.0625C11.4121 13.9416 11.9483 13.5533 12.3208 13.0519C12.9134 12.2917 13.1678 11.2951 13.0711 10.3341C13.1716 10.5201 13.3133 10.734 13.5472 10.7387C13.7978 10.7914 14.0149 10.6348 14.1977 10.4837C14.3675 10.5031 14.5542 10.5666 14.7149 10.4736C15.0531 10.2977 15.2245 9.89394 15.2009 9.5204C15.2062 9.29489 14.8406 9.17787 14.7339 9.38634C14.6692 9.5948 14.6242 9.81179 14.5237 10.0071C14.4178 9.82729 14.3729 9.51576 14.1025 9.54908C13.797 9.65757 13.9227 10.1241 13.6112 10.2613C13.5906 10.0637 13.6279 9.85674 13.5723 9.66532C13.4413 9.45996 13.2158 9.59015 13.046 9.65757C12.9827 8.53465 12.9264 7.41017 12.8159 6.29111C12.8167 6.08342 12.5592 5.95478 12.4 6.08575ZM18.1335 6.34381C18.1944 6.93046 18.3247 7.56284 18.0695 8.12236C17.9857 8.3471 17.6955 8.55015 17.4738 8.3998C17.1729 7.8953 17.3413 7.28385 17.3047 6.7313C17.1867 6.48641 16.8401 6.55925 16.6946 6.73672C16.313 7.1521 16.2886 7.76433 15.9938 8.23318C15.7463 7.96427 15.7988 7.58221 15.699 7.25672C15.6084 7.02656 15.2199 7.09398 15.2153 7.34585C15.2047 7.70233 15.2732 8.06812 15.4408 8.38353C15.5871 8.65709 15.9458 8.81441 16.2307 8.67259C16.5255 8.4959 16.6291 8.14174 16.7593 7.84337C16.8325 8.23241 16.8873 8.70979 17.2765 8.91206C17.7229 9.13215 18.2386 8.87796 18.5021 8.48892C18.7055 8.70359 18.9569 8.93608 19.273 8.90973C19.5267 8.90973 19.7064 8.71599 19.9159 8.60284C20.1741 8.55402 20.4659 8.56952 20.6799 8.38585C20.846 8.26108 20.7652 7.96427 20.5672 7.92862C20.3965 7.93715 20.2373 8.00767 20.0728 8.05029C20.0218 7.60313 19.8839 7.17458 19.73 6.75532C19.8961 6.85994 20.0713 6.81654 20.2373 6.7437C20.7028 7.43419 21.1903 8.11306 21.61 8.83378C21.7692 10.1613 21.7966 11.5028 21.8255 12.8396C21.8392 12.9884 21.8118 13.1883 21.9649 13.2736C22.1462 13.3937 22.3961 13.2147 22.3587 13.0016C22.3595 11.9585 22.31 10.9161 22.2468 9.87457C22.5393 10.4178 22.8371 10.9587 23.0618 11.5353C23.1433 11.688 23.1867 11.9189 23.3848 11.953C23.5615 12.0081 23.7481 11.788 23.6658 11.6151C23.3589 10.7456 22.898 9.94431 22.4319 9.1554C22.3069 8.92755 22.1317 8.71056 22.1119 8.44088C22.0266 7.76355 21.9649 7.08313 21.8545 6.40968C21.8278 6.28414 21.8149 6.11907 21.6816 6.06095C21.5071 5.9633 21.2657 6.13225 21.3129 6.33606C21.3479 6.76462 21.4409 7.1862 21.4843 7.61398C21.3068 7.36754 21.14 7.11258 20.9625 6.86614C21.0501 6.83902 21.1346 6.80647 21.2177 6.76694C21.3434 6.65767 21.3266 6.41356 21.1674 6.34536C20.8993 6.22369 20.6159 6.13302 20.3318 6.05707C20.1871 5.99973 20.0743 6.12217 19.9631 6.19347C19.7308 6.0563 19.3499 5.9819 19.2311 6.30506C19.0704 6.90256 19.4985 7.45124 19.5328 8.03867C19.5571 8.27116 19.2593 8.4773 19.0712 8.31146C18.8617 8.10299 18.7124 7.80153 18.7368 7.49696C18.752 7.04903 18.7307 6.59103 18.6088 6.1586C18.4801 5.91448 18.0634 6.06715 18.1335 6.34381ZM22.5598 6.04312C22.4433 6.07257 22.3298 6.20664 22.377 6.33219C22.4722 6.6352 22.5842 6.93201 22.6718 7.23735C22.767 7.48302 23.1707 7.37452 23.1524 7.11723C23.1372 6.78477 23.0077 6.46781 22.8554 6.17719C22.8051 6.06482 22.6748 6.01135 22.5598 6.04312ZM23.6102 6.02763C23.5005 6.12682 23.4015 6.25392 23.4366 6.41511C23.5927 8.14406 23.7748 9.87147 23.9035 11.6035C23.9104 11.9112 24.0246 12.2545 23.8502 12.5366C23.6057 12.9248 23.253 13.2294 22.8836 13.4898C22.6406 13.6618 22.3504 13.7703 22.1386 13.985C22.0022 14.178 22.2346 14.4662 22.4463 14.3663C22.994 14.1028 23.4899 13.7355 23.9271 13.31C24.2204 12.9992 24.4984 12.6071 24.4755 12.1545C24.3681 10.5511 24.2074 8.95235 24.0574 7.35205C24.0962 7.3195 24.1724 7.25285 24.2112 7.2203C24.1716 6.81344 24.0322 6.42053 23.838 6.06482C23.7809 6.05552 23.6674 6.03693 23.6102 6.02763ZM24.6736 6.02608C24.5639 6.1245 24.4611 6.24772 24.4946 6.40891C24.6248 7.96039 24.7879 9.50801 24.9013 11.061C24.9417 11.5128 24.9562 11.9678 25.0217 12.4165C24.9212 12.3142 24.7901 12.17 24.6347 12.2638C24.4116 12.3723 24.5098 12.659 24.5372 12.8497C24.6332 13.286 24.7414 13.7572 25.0514 14.0904C25.27 14.312 25.6235 14.2028 25.788 13.9703C26.1574 13.4991 26.2907 12.8946 26.5124 12.3467C26.7424 12.6404 26.9976 12.9411 27.3533 13.076C27.5803 13.1666 27.8568 13.0938 28.0092 12.9C28.2042 12.6699 28.2217 12.3514 28.2491 12.0623C28.2948 11.1176 28.1988 10.1745 28.1737 9.22979C28.3847 9.5607 28.6467 9.86139 28.8212 10.2132C28.9171 10.9053 28.9445 11.6066 28.9659 12.3049C28.9804 12.4397 28.9598 12.6218 29.1007 12.6978C29.2645 12.8109 29.5204 12.6699 29.4953 12.4622C29.4998 12.0336 29.458 11.6058 29.4534 11.1765C29.6987 11.557 29.8792 11.974 30.1001 12.3676C30.228 12.6474 30.6935 12.4312 30.5556 12.1499C30.2882 11.5392 29.9554 10.9587 29.592 10.4023C29.4831 10.2202 29.3406 10.0458 29.3224 9.82497C29.2157 9.01358 29.1098 8.20141 29.0078 7.38924C29.1243 7.30632 29.2317 7.211 29.3315 7.10793C29.4153 7.38227 29.4122 7.66901 29.429 7.95265C29.4953 8.17816 29.8464 8.16034 29.9081 7.94102C29.9972 7.58686 29.9424 7.19938 29.7703 6.87931C29.6583 6.62203 29.3452 6.7344 29.2508 6.94519C29.0923 6.69797 28.956 6.43448 28.7701 6.20664C28.6658 6.05397 28.4144 6.09117 28.3405 6.25547C28.3047 6.38411 28.3344 6.51818 28.3496 6.6476C28.4845 7.44349 28.5843 8.24558 28.7 9.04457C28.5081 8.75706 28.2765 8.4959 28.1128 8.19056C28.0396 7.84725 28.0457 7.49076 28.0137 7.14125C28.0777 7.03663 28.2293 6.93899 28.1805 6.79717C28.1059 6.5267 27.9536 6.28646 27.7982 6.05785C27.741 6.05087 27.6268 6.03848 27.5696 6.0315C27.5026 6.12217 27.396 6.20664 27.4104 6.33451C27.4165 6.6817 27.4721 7.02578 27.4965 7.37219C27.3488 7.18543 27.2048 6.99556 27.0639 6.80337C27.0867 6.67317 27.1835 6.50578 27.0616 6.39883C26.8719 6.24849 26.6495 6.14155 26.4233 6.06017C26.2542 5.98345 26.0561 6.14697 26.0835 6.32986C26.1262 6.46703 26.2146 6.5825 26.2983 6.69642C26.6906 7.20868 27.0761 7.72713 27.4661 8.24171C27.6062 8.3967 27.5917 8.61602 27.6062 8.81131C27.6397 9.58783 27.7068 10.3628 27.7288 11.1393C27.7288 11.6299 27.7776 12.1421 27.5986 12.6102C27.2215 12.4606 27.0022 12.1088 26.7927 11.7794C26.6769 11.5524 26.3372 11.5578 26.2138 11.774C25.8664 12.3715 25.7743 13.0984 25.3591 13.6595C25.203 13.3449 25.1253 13.0016 25.0346 12.6637C25.155 12.7063 25.2913 12.8264 25.4193 12.7311C25.5389 12.6621 25.5435 12.5095 25.5343 12.3862C25.4239 10.7239 25.2616 9.0655 25.12 7.40629C25.1839 7.2947 25.3089 7.18543 25.2601 7.04206C25.1771 6.70572 25.0689 6.37171 24.9021 6.06792C24.845 6.05785 24.7307 6.03693 24.6736 6.02608ZM30.0475 6.14155C29.915 6.23764 29.9721 6.42518 29.9828 6.56158C30.2524 8.13321 30.4726 9.7126 30.7072 11.2897C30.8039 12.0298 30.7689 12.8853 30.2379 13.4603C29.9851 13.7393 29.5989 13.7727 29.2508 13.8037C29.0756 13.8106 28.9773 14.0416 29.0702 14.1865C29.1662 14.3624 29.3932 14.3268 29.5593 14.3182C30.2174 14.2826 30.8115 13.8106 31.04 13.1876C31.3044 12.5691 31.315 11.8763 31.2328 11.2176C31.0515 9.90324 30.8519 8.59122 30.6432 7.28075C30.7849 7.22108 30.9837 7.14745 30.9616 6.95061C30.8275 6.65845 30.615 6.40813 30.4063 6.16789C30.3217 6.0563 30.1443 6.0408 30.0475 6.14155ZM14.1847 8.06579C14.075 8.34245 14.0613 8.70901 14.2997 8.92213C14.5107 9.11122 14.8269 9.04845 15.0668 8.957C15.226 8.89036 15.2481 8.64779 15.1247 8.5331C14.9921 8.41065 14.8063 8.49977 14.6501 8.50365C14.6562 8.375 14.6692 8.24713 14.6608 8.11926C14.6227 7.8922 14.2678 7.84803 14.1847 8.06579ZM22.4562 8.01774C22.2376 8.24481 22.4867 8.61214 22.7312 8.69816C23.0085 8.81131 23.2522 8.56022 23.3855 8.34168C23.4967 8.17429 23.3421 7.9449 23.1555 7.948C23.0542 7.96969 22.9742 8.04177 22.8881 8.09446C22.7701 7.99372 22.5941 7.88135 22.4562 8.01774ZM26.2854 8.56177C26.1612 8.4401 26.0493 8.29906 25.8992 8.20916C25.6973 8.10919 25.4551 8.37578 25.5755 8.56952C25.772 8.84076 26.034 9.05387 26.2587 9.30031C26.3821 9.41578 26.5329 9.61185 26.7211 9.50413C26.9755 9.32356 26.7904 8.9694 26.8117 8.71056C26.9199 8.63307 27.1058 8.58424 27.0981 8.41608C27.1119 8.22311 26.9039 8.09834 26.7333 8.14871C26.504 8.15724 26.376 8.37578 26.2854 8.56177ZM16.572 9.38866C16.8972 10.0513 17.0907 10.7929 17.0526 11.5369C17.0206 12.2219 16.6824 12.8884 16.1439 13.303C15.9298 13.4603 15.6655 13.613 15.3921 13.5611C15.1163 13.4875 15.0607 13.1597 14.9769 12.9256C15.3997 12.6063 15.8369 12.2739 16.1142 11.8089C16.4204 11.2641 16.3373 10.5806 16.0791 10.0334C16.233 10.0869 16.463 10.0854 16.5148 9.89006C16.5895 9.65835 16.3351 9.52041 16.1827 9.40726C15.9557 9.21817 15.5497 9.29644 15.4949 9.61728C15.4073 10.1497 15.8651 10.6023 15.7752 11.1416C15.7501 11.6779 15.2626 11.9817 14.9076 12.3018C14.8002 12.2824 14.6897 12.2227 14.5808 12.2537C14.3752 12.3312 14.4711 12.6397 14.283 12.7334C13.8701 12.9977 13.4443 13.2433 13.0025 13.4549C12.8609 13.5324 12.6986 13.5913 12.5912 13.7192C12.4587 13.9331 12.7192 14.2128 12.9355 14.0873C13.4832 13.854 13.9874 13.5301 14.5054 13.2379C14.6166 13.5022 14.7301 13.7905 14.9762 13.9563C15.2191 14.1547 15.5596 14.1485 15.8445 14.0609C16.4546 13.8579 16.9193 13.3627 17.2369 12.8101C17.7069 13.5479 18.608 13.8223 19.4292 13.8478C19.6562 13.8757 19.8024 13.5657 19.6409 13.4022C19.4916 13.3108 19.3141 13.2813 19.1702 13.1806C19.0178 13.0333 18.9866 12.7249 19.1907 12.6071C19.7003 12.3118 20.3036 12.2537 20.8779 12.215C21.0227 12.1979 21.2238 12.2041 21.2855 12.0367C21.4035 11.7732 21.5018 11.4981 21.5681 11.2168C21.6145 11.0703 21.485 10.9076 21.3373 10.9146C20.7088 10.8859 20.0789 10.9122 19.4505 10.9037C19.4657 10.8549 19.4954 10.7557 19.5107 10.7069C19.9685 10.586 20.5093 10.4752 20.7827 10.0396C21.0486 9.57078 20.5085 8.9384 20.0142 9.10347C19.5168 9.26389 19.289 9.79242 19.0932 10.2388C18.5433 10.3442 18.0047 10.5457 17.5645 10.9053C17.483 10.3171 17.3542 9.72345 17.0648 9.20189C17.0038 9.09107 16.9025 8.97328 16.7631 9.00273C16.5864 9.0159 16.4752 9.23599 16.572 9.38866ZM17.9971 9.30109C17.7321 9.45918 17.9156 9.79319 18.1114 9.91951C18.4435 10.1784 18.9036 9.96911 19.1382 9.6754C19.2639 9.50413 19.094 9.23522 18.8883 9.27164C18.7467 9.33209 18.6263 9.43128 18.49 9.50103C18.3346 9.41811 18.1929 9.19182 17.9971 9.30109ZM27.0761 9.71415C26.7744 9.88231 26.5139 10.1164 26.2275 10.3101C26.1056 10.4116 25.9236 10.4953 25.9083 10.6759C25.9038 10.8123 26.0096 10.9107 26.1262 10.9564C26.3661 10.9231 26.5436 10.7363 26.7379 10.6054C26.9511 10.4349 27.1972 10.3031 27.3846 10.1009C27.5415 9.90789 27.2916 9.60023 27.0761 9.71415ZM9.47578 9.86759C9.03094 10.135 8.57771 10.3938 8.14811 10.6867C7.92264 10.8379 8.13059 11.237 8.37814 11.1354C8.78566 10.9494 9.14596 10.672 9.539 10.4558C9.68221 10.3527 9.91529 10.2721 9.90387 10.0559C9.89168 9.84667 9.6365 9.73895 9.47578 9.86759ZM26.9892 10.6953C26.8133 10.8185 26.9382 11.0502 26.9572 11.2191C27.0128 11.4183 26.9778 11.7748 27.268 11.7779C27.5864 11.7632 27.546 11.3664 27.5049 11.1424C27.4843 10.8952 27.2749 10.5255 26.9892 10.6953ZM13.615 11.378C13.6073 11.5345 13.7376 11.6275 13.8366 11.7236C13.8686 11.8608 13.8778 12.0081 13.9433 12.1351C14.0712 12.3157 14.3919 12.225 14.4033 12.0003C14.4292 11.6841 14.3226 11.2819 13.9897 11.1781C13.8351 11.1091 13.6546 11.2153 13.615 11.378ZM7.82438 12.1026C7.68574 12.5436 7.6667 13.0426 7.83428 13.4797C7.92416 13.7293 8.2098 13.9238 8.46422 13.7843C8.67369 13.6719 8.95857 13.3914 8.78109 13.1403C8.64018 12.9566 8.41775 13.093 8.28445 13.2069C8.21666 12.8776 8.27684 12.5474 8.29969 12.2173C8.32482 11.9608 7.92416 11.8709 7.82438 12.1026ZM20.6098 12.5761C20.3821 12.7729 20.1566 12.9822 19.9883 13.2341C19.9121 13.5154 20.2206 13.6347 20.4384 13.5479C20.5436 13.7052 20.6578 13.899 20.865 13.9176C21.1857 13.9555 21.4409 13.6649 21.5513 13.3875C21.6374 13.1798 21.3639 12.952 21.1826 13.0814C21.0912 13.1542 21.0173 13.2449 20.9374 13.3301C20.9716 13.117 21.0311 12.9039 21.0181 12.6861C20.9617 12.5219 20.737 12.4529 20.6098 12.5761ZM28.339 13.5278C28.2979 13.6773 28.2019 13.8765 28.3603 13.992C28.5317 14.1454 28.748 13.9873 28.8234 13.813C29.0131 13.5371 28.8509 13.0209 28.4936 13.0147C28.2362 13.0519 28.2499 13.3433 28.339 13.5278ZM25.0605 18.593C25.0019 18.7239 25.0164 18.8735 24.9973 19.0138C20.3181 19.0169 15.6381 19.0076 10.9581 19.0184C11.6741 19.6291 12.6438 19.8205 13.5555 19.8228C17.374 19.8228 21.1925 19.8236 25.011 19.8228C25.0164 20.0344 24.992 20.2514 25.0377 20.4606C25.091 20.6396 25.2959 20.6288 25.4445 20.6334C26.002 20.6334 26.5596 20.6296 27.1179 20.6342C27.3792 20.6319 27.6694 20.6296 27.8827 20.4513C28.2285 20.1933 28.2841 19.6353 28 19.309C27.8279 19.0827 27.5384 19.0114 27.2703 19.0138C26.699 19.0114 26.1285 19.0145 25.5579 19.0153C25.542 18.8766 25.548 18.7324 25.5008 18.5999C25.4102 18.4403 25.1558 18.4356 25.0605 18.593Z" fill="#73AF00"/>
<path d="M14.8054 6.29968C14.9867 6.32216 14.9661 6.57945 14.7856 6.57635C14.65 6.5159 14.6454 6.32758 14.8054 6.29968Z" fill="#73AF00"/>
<path d="M20.0956 9.65522C20.1946 9.5537 20.2845 9.71644 20.3744 9.74976C20.1863 9.91251 19.9615 10.0179 19.73 10.0993C19.8404 9.94351 19.9288 9.75829 20.0956 9.65522Z" fill="#73AF00"/>
<path d="M11.4554 10.61C11.4379 10.352 11.6923 10.2342 11.8873 10.1512C11.949 10.2512 12.0092 10.3527 12.0686 10.455C11.8729 10.5356 11.6733 10.6333 11.4554 10.61Z" fill="#73AF00"/>
<path d="M17.5959 11.6469C18.1116 11.6391 18.6699 11.6864 19.098 12.0111C18.9236 12.1537 18.7133 12.2715 18.6059 12.4807C18.4909 12.6869 18.5297 12.9341 18.5343 13.1604C18.2464 13.0279 17.9341 12.8915 17.7551 12.6109C17.5547 12.3335 17.5647 11.9731 17.5959 11.6469Z" fill="#73AF00"/>
<path d="M25.5444 19.8229C26.2635 19.8291 26.9826 19.8097 27.7016 19.8337C27.6201 19.9267 27.5607 20.0879 27.4145 20.0825C26.7921 20.1073 26.1675 20.0832 25.5444 20.0918C25.5444 20.0243 25.5444 19.8903 25.5444 19.8229Z" fill="#73AF00"/>
<path d="M15.8663 6.69105C15.5144 6.33844 15.6881 5.65259 16.1542 5.49915C16.331 5.41313 16.545 5.59292 16.5122 5.78511C16.4307 5.94786 16.2746 6.05635 16.1839 6.21522C16.2753 6.35317 16.4635 6.51746 16.3378 6.69648C16.2327 6.87239 15.9821 6.83597 15.8663 6.69105Z" fill="#F5F5F5"/>
<path d="M8.40311 5.8354C8.55317 5.67498 8.84491 5.8044 8.8411 6.02295C8.86929 6.22521 8.86472 6.5352 8.60725 6.57007C8.25001 6.57705 8.23477 6.04774 8.40311 5.8354Z" fill="#F5F5F5"/>
<path d="M11.0677 5.82305C11.2978 5.68821 11.8211 5.71921 11.7525 6.10282C11.6817 6.34151 11.393 6.31593 11.2003 6.29501C10.9718 6.28726 10.8842 5.95092 11.0677 5.82305Z" fill="#F5F5F5"/>
<path d="M14.1644 6.32676C14.2169 5.89356 14.7425 5.62697 15.1142 5.84783C15.476 6.02763 15.5918 6.57475 15.3024 6.87234C14.9444 7.23348 14.517 7.51479 14.1308 7.84415C13.9549 7.97435 13.7934 8.15801 13.5679 8.18901C13.3745 8.15569 13.2602 7.89297 13.4133 7.74805C13.7134 7.46054 14.0592 7.22805 14.3754 6.95991C14.2497 6.77625 14.1103 6.56313 14.1644 6.32676ZM14.8057 6.29964C14.6458 6.32754 14.6503 6.51586 14.7859 6.5763C14.9664 6.5794 14.987 6.32211 14.8057 6.29964Z" fill="#F5F5F5"/>
<path d="M17.6137 5.7967C17.7676 5.67425 18.0433 5.8184 18.0151 6.02144C17.9847 6.24075 17.9245 6.45774 17.8361 6.66079C17.7752 6.82663 17.5421 6.88398 17.4195 6.75223C17.2854 6.63444 17.3654 6.44534 17.3951 6.29965C17.4538 6.12916 17.4743 5.92147 17.6137 5.7967Z" fill="#F5F5F5"/>
<path d="M9.95241 6.15243C10.053 5.97807 10.3485 6.00364 10.4072 6.20048C10.6669 6.94445 10.6715 7.74344 10.7423 8.52073C10.948 8.52228 11.1514 8.55483 11.354 8.59436C11.5269 8.65093 11.7097 8.44479 11.6701 8.27584C11.5688 7.79691 11.3448 7.35363 11.245 6.87393C11.1963 6.69414 11.4088 6.52054 11.5718 6.59649C11.8102 6.68794 12.0586 6.78946 12.2475 6.9677C12.3983 7.19089 12.1469 7.36138 11.9557 7.40246C12.0418 7.66362 12.1477 7.92091 12.1972 8.1937C12.281 8.63543 11.9291 9.07716 11.5056 9.14768C11.2572 9.15233 11.0188 9.06321 10.7705 9.05779C10.7347 9.94745 10.7766 10.8418 10.6898 11.7291C10.6753 11.9693 10.3173 12.0414 10.2023 11.8322C10.1596 11.6842 10.1802 11.5276 10.184 11.3765C10.2251 10.6992 10.216 10.0203 10.2365 9.34298C10.1017 9.36545 9.9684 9.40187 9.83053 9.4011C9.58907 9.36932 9.39788 9.14226 9.38417 8.89814C9.34456 8.38202 9.40473 7.86356 9.35751 7.34821C9.35827 7.22266 9.11909 7.20251 9.12594 7.35518C9.07415 7.87441 9.14346 8.39984 9.09624 8.91984C9.06348 9.2647 8.6392 9.51037 8.34213 9.31585C8.10524 9.16241 8.07858 8.85087 8.01993 8.59668C7.95213 8.17975 7.8295 7.77134 7.79446 7.35053C7.79065 7.08704 8.21417 7.02195 8.28424 7.27691C8.42669 7.72019 8.44573 8.19912 8.57827 8.6424C8.5935 8.21075 8.55694 7.77832 8.58893 7.34821C8.59655 7.04365 8.83649 6.76853 9.1328 6.72591C9.49995 6.64609 9.88461 6.95452 9.89223 7.33736C9.9227 7.84729 9.89528 8.35799 9.90442 8.86869C10.0103 8.82607 10.1169 8.78345 10.2236 8.7416C10.1626 8.01778 10.1619 7.28156 9.96612 6.57712C9.94327 6.43917 9.8671 6.28263 9.95241 6.15243Z" fill="#F5F5F5"/>
<path d="M12.4001 6.08575C12.5593 5.95478 12.8168 6.08343 12.816 6.29112C12.9265 7.41017 12.9828 8.53465 13.0461 9.65758C13.2159 9.59016 13.4414 9.45996 13.5724 9.66533C13.628 9.85675 13.5907 10.0637 13.6112 10.2613C13.9228 10.1241 13.7971 9.65758 14.1026 9.54908C14.373 9.51576 14.4179 9.8273 14.5238 10.0071C14.6243 9.8118 14.6693 9.59481 14.734 9.38634C14.8407 9.17787 15.2063 9.29489 15.201 9.52041C15.2246 9.89394 15.0532 10.2977 14.715 10.4736C14.5543 10.5666 14.3676 10.5031 14.1978 10.4837C14.015 10.6348 13.7979 10.7914 13.5473 10.7387C13.3134 10.734 13.1717 10.5201 13.0712 10.3341C13.1679 11.2951 12.9135 12.2917 12.3209 13.0519C11.9484 13.5533 11.4122 13.9416 10.7997 14.0625C10.2208 14.1439 9.58861 13.9377 9.20775 13.4751C8.92287 13.1294 8.82765 12.659 8.84974 12.2181C8.8505 11.9654 9.21994 11.8717 9.33572 12.0964C9.40275 12.4118 9.35857 12.766 9.55357 13.0426C9.90929 13.582 10.7007 13.6742 11.224 13.3418C12.0284 12.8435 12.4877 11.8949 12.5639 10.9588C12.4054 11.5717 12.1366 12.1917 11.6194 12.5777C11.1646 12.9388 10.4798 13.014 9.99384 12.673C9.60384 12.4025 9.44464 11.9143 9.39056 11.4586C9.38294 11.3013 9.34029 11.1161 9.44084 10.9797C9.54595 10.8402 9.77523 10.8658 9.86283 11.0114C9.93291 11.254 9.91234 11.516 9.99003 11.7577C10.0693 12.0112 10.246 12.2638 10.5164 12.3219C10.8157 12.4095 11.1402 12.2932 11.371 12.0933C11.6651 11.8352 11.8387 11.4702 11.9728 11.1068C11.6308 11.1959 11.1646 11.1943 10.9917 10.8162C10.7167 10.1729 11.4792 9.46461 12.0992 9.69168C12.2996 9.76763 12.4115 9.96524 12.5426 10.1249C12.4694 8.93841 12.4184 7.75038 12.3095 6.56701C12.311 6.40814 12.2462 6.19347 12.4001 6.08575ZM11.4556 10.61C11.6734 10.6333 11.873 10.5356 12.0688 10.455C12.0094 10.3527 11.9492 10.2512 11.8875 10.1512C11.6925 10.2342 11.4381 10.352 11.4556 10.61Z" fill="#F5F5F5"/>
<path d="M18.1336 6.34379C18.0635 6.06712 18.4802 5.91445 18.6089 6.15857C18.7308 6.591 18.7521 7.04901 18.7369 7.49694C18.7125 7.8015 18.8618 8.10296 19.0712 8.31143C19.2594 8.47727 19.5572 8.27113 19.5328 8.03864C19.4986 7.45121 19.0705 6.90254 19.2312 6.30504C19.35 5.98188 19.7309 6.05627 19.9632 6.19344C20.0744 6.12214 20.1872 5.9997 20.3319 6.05705C20.616 6.13299 20.8994 6.22366 21.1675 6.34533C21.3267 6.41353 21.3435 6.65765 21.2178 6.76692C21.1347 6.80644 21.0502 6.83899 20.9626 6.86611C21.1401 7.11255 21.3069 7.36752 21.4844 7.61396C21.441 7.18618 21.348 6.76459 21.313 6.33604C21.2658 6.13222 21.5072 5.96328 21.6817 6.06092C21.815 6.11904 21.8279 6.28411 21.8546 6.40966C21.965 7.0831 22.0267 7.76353 22.112 8.44085C22.1318 8.71054 22.307 8.92753 22.4319 9.15537C22.8981 9.94429 23.359 10.7456 23.6659 11.6151C23.7482 11.7879 23.5616 12.008 23.3849 11.953C23.1868 11.9189 23.1434 11.688 23.0619 11.5353C22.8372 10.9587 22.5394 10.4178 22.2469 9.87454C22.3101 10.9161 22.3596 11.9584 22.3588 13.0015C22.3961 13.2146 22.1463 13.3937 21.965 13.2735C21.8119 13.1883 21.8393 12.9884 21.8256 12.8396C21.7967 11.5027 21.7693 10.1613 21.6101 8.83376C21.1903 8.11304 20.7028 7.43416 20.2374 6.74367C20.0714 6.81651 19.8962 6.85991 19.7301 6.75529C19.884 7.17455 20.0219 7.60311 20.0729 8.05026C20.2374 8.00764 20.3966 7.93712 20.5673 7.92859C20.7653 7.96424 20.8461 8.26105 20.68 8.38582C20.466 8.56949 20.1742 8.55399 19.916 8.60282C19.7065 8.71596 19.5268 8.9097 19.2731 8.9097C18.957 8.93605 18.7056 8.70356 18.5022 8.4889C18.2387 8.87793 17.723 9.13212 17.2766 8.91203C16.8874 8.70976 16.8326 8.23238 16.7594 7.84335C16.6292 8.14171 16.5256 8.49587 16.2308 8.67256C15.9459 8.81438 15.5871 8.65706 15.4409 8.3835C15.2733 8.06809 15.2048 7.7023 15.2154 7.34582C15.22 7.09395 15.6085 7.02653 15.6991 7.2567C15.7989 7.58218 15.7463 7.96424 15.9939 8.23316C16.2887 7.7643 16.3131 7.15208 16.6947 6.73669C16.8402 6.55923 17.1868 6.48638 17.3048 6.73127C17.3414 7.28382 17.173 7.89527 17.4739 8.39977C17.6956 8.55012 17.9858 8.34708 18.0696 8.12234C18.3248 7.56281 18.1945 6.93044 18.1336 6.34379Z" fill="#F5F5F5"/>
<path d="M22.5595 6.04312C22.6745 6.01134 22.8048 6.06482 22.8551 6.17719C23.0074 6.4678 23.1369 6.78476 23.1521 7.11722C23.1704 7.37451 22.7667 7.48301 22.6715 7.23734C22.5839 6.93201 22.4719 6.63519 22.3767 6.33218C22.3295 6.20664 22.443 6.07257 22.5595 6.04312Z" fill="#F5F5F5"/>
<path d="M23.6105 6.02759C23.6676 6.03689 23.7811 6.05549 23.8383 6.06479C24.0325 6.4205 24.1719 6.81341 24.2115 7.22026C24.1727 7.25281 24.0965 7.31946 24.0576 7.35201C24.2077 8.95232 24.3684 10.5511 24.4758 12.1545C24.4987 12.6071 24.2207 12.9992 23.9274 13.31C23.4902 13.7354 22.9943 14.1028 22.4466 14.3662C22.2349 14.4662 22.0025 14.1779 22.1389 13.985C22.3506 13.7703 22.6409 13.6618 22.8838 13.4898C23.2533 13.2294 23.6059 12.9248 23.8505 12.5365C24.0249 12.2545 23.9106 11.9111 23.9038 11.6035C23.775 9.87143 23.593 8.14402 23.4368 6.41507C23.4018 6.25388 23.5008 6.12678 23.6105 6.02759Z" fill="#F5F5F5"/>
<path d="M24.6737 6.02612C24.7309 6.03697 24.8451 6.0579 24.9022 6.06797C25.0691 6.37176 25.1772 6.70577 25.2603 7.04211C25.309 7.18547 25.1841 7.29474 25.1201 7.40634C25.2618 9.06555 25.424 10.724 25.5345 12.3863C25.5436 12.5095 25.539 12.6622 25.4194 12.7311C25.2915 12.8265 25.1551 12.7063 25.0348 12.6637C25.1254 13.0016 25.2031 13.3449 25.3593 13.6596C25.7744 13.0985 25.8666 12.3716 26.2139 11.7741C26.3373 11.5578 26.677 11.5524 26.7928 11.7795C27.0023 12.1088 27.2217 12.4607 27.5987 12.6102C27.7777 12.1422 27.729 11.6299 27.729 11.1394C27.7069 10.3628 27.6399 9.58787 27.6063 8.81136C27.5919 8.61607 27.6063 8.39675 27.4662 8.24176C27.0762 7.72718 26.6908 7.20872 26.2985 6.69647C26.2147 6.58255 26.1263 6.46708 26.0837 6.32991C26.0562 6.14702 26.2543 5.9835 26.4234 6.06022C26.6496 6.14159 26.872 6.24854 27.0617 6.39888C27.1836 6.50583 27.0869 6.67322 27.064 6.80342C27.2049 6.99561 27.3489 7.18547 27.4967 7.37224C27.4723 7.02583 27.4167 6.68175 27.4106 6.33456C27.3961 6.20669 27.5028 6.12222 27.5698 6.03155C27.6269 6.03852 27.7412 6.05092 27.7983 6.0579C27.9537 6.28651 28.106 6.52675 28.1807 6.79722C28.2294 6.93903 28.0778 7.03668 28.0139 7.1413C28.0459 7.49081 28.0398 7.8473 28.1129 8.19061C28.2767 8.49594 28.5082 8.75711 28.7002 9.04462C28.5844 8.24563 28.4846 7.44354 28.3498 6.64765C28.3345 6.51823 28.3048 6.38416 28.3406 6.25551C28.4145 6.09122 28.6659 6.05402 28.7703 6.20669C28.9561 6.43453 29.0925 6.69802 29.2509 6.94523C29.3453 6.73444 29.6584 6.62207 29.7704 6.87936C29.9425 7.19942 29.9974 7.58691 29.9083 7.94107C29.8466 8.16038 29.4954 8.17821 29.4291 7.95269C29.4124 7.66905 29.4154 7.38232 29.3316 7.10798C29.2319 7.21105 29.1245 7.30637 29.0079 7.38929C29.11 8.20146 29.2159 9.01362 29.3225 9.82501C29.3408 10.0459 29.4832 10.2202 29.5921 10.4024C29.9555 10.9588 30.2884 11.5392 30.5557 12.1499C30.6936 12.4312 30.2282 12.6474 30.1002 12.3677C29.8793 11.974 29.6988 11.5571 29.4535 11.1766C29.4581 11.6059 29.5 12.0337 29.4954 12.4622C29.5205 12.6699 29.2646 12.811 29.1008 12.6978C28.9599 12.6219 28.9805 12.4398 28.966 12.3049C28.9447 11.6067 28.9173 10.9053 28.8213 10.2133C28.6469 9.86144 28.3848 9.56075 28.1738 9.22984C28.199 10.1745 28.2949 11.1177 28.2492 12.0623C28.2218 12.3514 28.2043 12.6699 28.0093 12.9001C27.8569 13.0938 27.5804 13.1667 27.3535 13.076C26.9977 12.9412 26.7426 12.6405 26.5125 12.3468C26.2909 12.8947 26.1576 13.4991 25.7881 13.9703C25.6236 14.2028 25.2702 14.3121 25.0515 14.0904C24.7415 13.7572 24.6334 13.286 24.5374 12.8497C24.51 12.6591 24.4117 12.3723 24.6349 12.2638C24.7903 12.1701 24.9213 12.3142 25.0218 12.4165C24.9563 11.9678 24.9419 11.5129 24.9015 11.0611C24.788 9.50805 24.625 7.96044 24.4947 6.40896C24.4612 6.24776 24.564 6.12454 24.6737 6.02612Z" fill="#F5F5F5"/>
<path d="M30.0477 6.14157C30.1444 6.04082 30.3219 6.05632 30.4064 6.16791C30.6152 6.40815 30.8277 6.65847 30.9617 6.95063C30.9838 7.14747 30.785 7.2211 30.6433 7.28077C30.8521 8.59124 31.0516 9.90326 31.2329 11.2176C31.3152 11.8763 31.3045 12.5691 31.0402 13.1876C30.8117 13.8106 30.2175 14.2826 29.5594 14.3182C29.3934 14.3268 29.1664 14.3624 29.0704 14.1865C28.9775 14.0416 29.0757 13.8106 29.2509 13.8037C29.599 13.7727 29.9852 13.7393 30.2381 13.4604C30.769 12.8853 30.8041 12.0298 30.7073 11.2897C30.4727 9.71262 30.2526 8.13323 29.9829 6.5616C29.9723 6.4252 29.9151 6.23766 30.0477 6.14157Z" fill="#F5F5F5"/>
<path d="M14.1847 8.06578C14.2678 7.84801 14.6227 7.89218 14.6608 8.11925C14.6692 8.24712 14.6562 8.37499 14.6502 8.50363C14.8063 8.49976 14.9922 8.41064 15.1247 8.53308C15.2481 8.64778 15.226 8.89034 15.0668 8.95699C14.8269 9.04844 14.5108 9.11121 14.2998 8.92212C14.0613 8.709 14.0751 8.34244 14.1847 8.06578Z" fill="#F5F5F5"/>
<path d="M22.4562 8.01778C22.594 7.88138 22.77 7.99375 22.8881 8.0945C22.9741 8.0418 23.0541 7.96973 23.1554 7.94803C23.342 7.94493 23.4967 8.17432 23.3855 8.34171C23.2522 8.56025 23.0084 8.81134 22.7311 8.6982C22.4866 8.61218 22.2375 8.24484 22.4562 8.01778Z" fill="#F5F5F5"/>
<path d="M26.2855 8.56172C26.3761 8.37572 26.5041 8.15718 26.7334 8.14866C26.904 8.09829 27.112 8.22305 27.0983 8.41602C27.1059 8.58419 26.92 8.63301 26.8118 8.71051C26.7905 8.96935 26.9756 9.32351 26.7212 9.50408C26.5331 9.6118 26.3822 9.41573 26.2588 9.30026C26.0341 9.05382 25.7721 8.8407 25.5756 8.56947C25.4552 8.37572 25.6975 8.10913 25.8993 8.20911C26.0494 8.299 26.1613 8.44005 26.2855 8.56172Z" fill="#F5F5F5"/>
<path d="M16.5719 9.38869C16.4752 9.23602 16.5864 9.01593 16.7631 9.00275C16.9025 8.97331 17.0038 9.0911 17.0647 9.20192C17.3542 9.72347 17.4829 10.3171 17.5644 10.9053C18.0047 10.5457 18.5432 10.3442 19.0932 10.2388C19.289 9.79245 19.5167 9.26392 20.0141 9.1035C20.5085 8.93843 21.0485 9.5708 20.7827 10.0397C20.5092 10.4752 19.9684 10.586 19.5106 10.7069C19.4954 10.7557 19.4657 10.8549 19.4504 10.9037C20.0789 10.9123 20.7088 10.8859 21.3372 10.9146C21.485 10.9076 21.6145 11.0704 21.568 11.2168C21.5017 11.4981 21.4035 11.7733 21.2854 12.0368C21.2237 12.2041 21.0226 12.1979 20.8779 12.215C20.3036 12.2537 19.7003 12.3119 19.1907 12.6071C18.9865 12.7249 19.0178 13.0334 19.1701 13.1806C19.3141 13.2814 19.4916 13.3108 19.6409 13.4022C19.8023 13.5658 19.6561 13.8757 19.4291 13.8479C18.608 13.8223 17.7069 13.5479 17.2369 12.8102C16.9192 13.3627 16.4546 13.8579 15.8445 14.061C15.5596 14.1485 15.2191 14.1547 14.9761 13.9563C14.7301 13.7905 14.6166 13.5022 14.5054 13.238C13.9874 13.5301 13.4831 13.8541 12.9355 14.0873C12.7191 14.2129 12.4586 13.9331 12.5912 13.7192C12.6986 13.5913 12.8608 13.5324 13.0025 13.4549C13.4443 13.2434 13.8701 12.9977 14.2829 12.7334C14.4711 12.6397 14.3751 12.3312 14.5808 12.2537C14.6897 12.2227 14.8001 12.2824 14.9075 12.3018C15.2625 11.9817 15.75 11.6779 15.7751 11.1417C15.865 10.6023 15.4072 10.1497 15.4948 9.6173C15.5497 9.29647 15.9557 9.2182 16.1827 9.40729C16.335 9.52043 16.5894 9.65838 16.5148 9.89009C16.463 10.0854 16.2329 10.0869 16.0791 10.0335C16.3373 10.5806 16.4203 11.2641 16.1141 11.8089C15.8368 12.2739 15.3996 12.6064 14.9769 12.9256C15.0606 13.1597 15.1163 13.4875 15.392 13.5611C15.6655 13.613 15.9298 13.4604 16.1438 13.303C16.6823 12.8884 17.0206 12.222 17.0525 11.5369C17.0906 10.7929 16.8972 10.0513 16.5719 9.38869ZM20.0956 9.65528C19.9288 9.75835 19.8404 9.94356 19.73 10.0993C19.9615 10.018 20.1863 9.91257 20.3744 9.74982C20.2845 9.7165 20.1946 9.55376 20.0956 9.65528ZM17.5956 11.6469C17.5644 11.9732 17.5545 12.3336 17.7548 12.611C17.9339 12.8915 18.2462 13.0279 18.5341 13.1605C18.5295 12.9342 18.4907 12.6869 18.6057 12.4808C18.7131 12.2716 18.9233 12.1538 19.0978 12.0112C18.6697 11.6865 18.1113 11.6392 17.5956 11.6469Z" fill="#F5F5F5"/>
<path d="M17.9975 9.30111C18.1932 9.19184 18.3349 9.41813 18.4903 9.50105C18.6266 9.4313 18.747 9.33211 18.8887 9.27166C19.0943 9.23524 19.2642 9.50415 19.1385 9.67542C18.9039 9.96913 18.4438 10.1784 18.1117 9.91953C17.9159 9.79321 17.7324 9.4592 17.9975 9.30111Z" fill="#F5F5F5"/>
<path d="M27.0761 9.71419C27.2916 9.60027 27.5415 9.90794 27.3846 10.1009C27.1972 10.3032 26.9511 10.4349 26.7379 10.6054C26.5436 10.7364 26.3661 10.9231 26.1262 10.9565C26.0097 10.9107 25.9038 10.8123 25.9083 10.6759C25.9236 10.4954 26.1056 10.4117 26.2275 10.3101C26.5139 10.1164 26.7744 9.88236 27.0761 9.71419Z" fill="#F5F5F5"/>
<path d="M9.47548 9.86762C9.6362 9.73897 9.89138 9.84669 9.90357 10.0559C9.91499 10.2722 9.6819 10.3527 9.5387 10.4558C9.14565 10.672 8.78536 10.9495 8.37784 11.1355C8.13028 11.237 7.92233 10.8379 8.1478 10.6868C8.57741 10.3938 9.03064 10.135 9.47548 9.86762Z" fill="#F5F5F5"/>
<path d="M26.9892 10.6952C27.2749 10.5255 27.4844 10.8951 27.5049 11.1424C27.5461 11.3663 27.5864 11.7631 27.268 11.7778C26.9778 11.7747 27.0129 11.4182 26.9573 11.2191C26.9382 11.0501 26.8133 10.8184 26.9892 10.6952Z" fill="#F5F5F5"/>
<path d="M13.6151 11.3781C13.6547 11.2153 13.8352 11.1091 13.9898 11.1781C14.3227 11.282 14.4293 11.6842 14.4034 12.0004C14.392 12.2251 14.0713 12.3158 13.9434 12.1352C13.8779 12.0081 13.8687 11.8609 13.8367 11.7237C13.7377 11.6276 13.6074 11.5346 13.6151 11.3781Z" fill="#F5F5F5"/>
<path d="M7.82426 12.1026C7.92404 11.8709 8.32471 11.9608 8.29957 12.2173C8.27672 12.5474 8.21654 12.8776 8.28434 13.2069C8.41764 13.093 8.64006 12.9566 8.78098 13.1403C8.95846 13.3914 8.67358 13.6719 8.4641 13.7843C8.20969 13.9238 7.92404 13.7293 7.83416 13.4797C7.66658 13.0426 7.68563 12.5436 7.82426 12.1026Z" fill="#F5F5F5"/>
<path d="M20.6095 12.5761C20.7367 12.4529 20.9614 12.5218 21.0177 12.6861C21.0307 12.9039 20.9713 13.117 20.937 13.3301C21.017 13.2449 21.0909 13.1542 21.1823 13.0814C21.3636 12.9519 21.637 13.1798 21.5509 13.3875C21.4405 13.6649 21.1853 13.9555 20.8646 13.9176C20.6574 13.899 20.5432 13.7052 20.4381 13.5479C20.2202 13.6347 19.9117 13.5153 19.9879 13.234C20.1562 12.9822 20.3817 12.7729 20.6095 12.5761Z" fill="#F5F5F5"/>
<path d="M28.339 13.5278C28.2499 13.3434 28.2362 13.052 28.4937 13.0148C28.8509 13.021 29.0132 13.5371 28.8235 13.813C28.7481 13.9874 28.5318 14.1454 28.3604 13.992C28.2019 13.8765 28.2979 13.6774 28.339 13.5278Z" fill="#F5F5F5"/>
<path d="M25.061 18.593C25.1562 18.4356 25.4106 18.4403 25.5012 18.5999C25.5485 18.7324 25.5424 18.8766 25.5584 19.0153C26.1289 19.0145 26.6994 19.0114 27.2707 19.0138C27.5388 19.0114 27.8283 19.0827 28.0004 19.309C28.2846 19.6353 28.2289 20.1933 27.8831 20.4513C27.6698 20.6296 27.3796 20.6319 27.1184 20.6342C26.56 20.6296 26.0024 20.6334 25.4449 20.6334C25.2963 20.6288 25.0914 20.6396 25.0381 20.4606C24.9924 20.2514 25.0168 20.0344 25.0114 19.8228C21.1929 19.8236 17.3745 19.8228 13.556 19.8228C12.6442 19.8205 11.6745 19.6291 10.9585 19.0184C15.6385 19.0076 20.3185 19.0169 24.9977 19.0138C25.0168 18.8735 25.0023 18.7239 25.061 18.593ZM25.5446 19.8228C25.5446 19.8902 25.5446 20.0243 25.5446 20.0917C26.1677 20.0832 26.7923 20.1072 27.4147 20.0824C27.5609 20.0879 27.6203 19.9267 27.7018 19.8337C26.9828 19.8097 26.2637 19.829 25.5446 19.8228Z" fill="#F5F5F5"/>
</svg>
