<?xml version="1.0" encoding="utf-8"?>
<!-- Generator: Adobe Illustrator 24.0.1, SVG Export Plug-In . SVG Version: 6.00 Build 0)  -->
<svg version="1.1" id="Layer_1" xmlns="http://www.w3.org/2000/svg" xmlns:xlink="http://www.w3.org/1999/xlink" x="0px" y="0px"
	 viewBox="0 0 100 100" style="enable-background:new 0 0 100 100;" xml:space="preserve">
<style type="text/css">
	.st0{fill:#8D131E;}
	.st1{fill:url(#SVGID_1_);}
	.st2{fill:url(#SVGID_2_);}
	.st3{fill:url(#SVGID_3_);}
</style>
<circle class="st0" cx="50" cy="50" r="50"/>
<g>
	
		<linearGradient id="SVGID_1_" gradientUnits="userSpaceOnUse" x1="84.4641" y1="49.7129" x2="84.4641" y2="45.8646" gradientTransform="matrix(1 0 0 -1 0 99.896)">
		<stop  offset="0" style="stop-color:#B08E39"/>
		<stop  offset="1" style="stop-color:#E8D57C"/>
	</linearGradient>
	<path class="st1" d="M82.6,54c0.9,0,1.7-0.6,1.9-1.4c0.2,0.8,1,1.4,1.9,1.4c1.1,0,1.9-0.9,1.9-1.9c0-1.1-0.9-1.9-1.9-1.9
		c-0.9,0-1.7,0.6-1.9,1.4c-0.2-0.8-1-1.4-1.9-1.4c-1.1,0-1.9,0.9-1.9,1.9C80.7,53.2,81.5,54,82.6,54z"/>
	
		<linearGradient id="SVGID_2_" gradientUnits="userSpaceOnUse" x1="50" y1="63.3164" x2="50" y2="28.3745" gradientTransform="matrix(1 0 0 -1 0 99.896)">
		<stop  offset="0" style="stop-color:#B08E39"/>
		<stop  offset="1" style="stop-color:#E8D57C"/>
	</linearGradient>
	<path class="st2" d="M82.4,57.7c-0.5,2.8-1.5,4.6-3.1,6.9c-2.7,3.9-8.4,5.1-12.8,5.3c-1.9,0.1-3.8,0-5.7-0.4c0,0,0.1,0,0.1,0
		c3.2-0.7,6.1-2.4,8.6-4.8c3.6-3.5,5.4-7.6,5.4-12c0-4.2-1.6-7.9-4.9-11.2c-3.3-3.3-7.4-4.9-12.4-4.9c-2.8,0-5.3,0.5-7.7,1.6
		c-2.3-1-4.9-1.6-7.7-1.6c-1.4,0-2.8,0.1-4.1,0.4c-3.2,0.7-6,2.2-8.3,4.5c-2.1,2.1-3.6,4.5-4.3,7c-0.4,1.4-0.6,2.7-0.6,4.2
		c0,4.5,1.8,8.5,5.4,12c2.6,2.5,5.5,4.2,8.8,4.9c-1.9,0.3-3.8,0.5-5.7,0.4c-4.5-0.2-10.1-1.4-12.8-5.3c-1.6-2.3-2.6-4.1-3.1-6.9
		h-5.9l0.2,0.5c0.4,1.2,0.9,2.4,1.6,3.5c1.6,2.6,4.7,6.5,10.5,8.3c0.9,0.3,1.8,0.6,2.7,0.8c3.3,0.8,8.1,0.7,8.1,0.7
		c2.5-0.1,5-0.3,7.4-0.7c0.6-0.1,1.2-0.2,1.8-0.3c5.2,0.8,9.5,0.6,12.6,0.1c0.4,0.1,0.8,0.1,1.2,0.2c2.4,0.3,4.8,0.6,7.2,0.7
		c0,0,5.5,0.1,8.4-0.7c0.9-0.2,1.8-0.5,2.7-0.8c5.8-1.8,8.9-5.7,10.5-8.3c0.7-1.1,1.2-2.2,1.6-3.5l0.1-0.5L82.4,57.7z M42.8,68.6
		c-3.5,0-6.4-1.6-8.5-4.7c-1.6-2.4-2.6-5-3-7.9c-0.1-1-0.2-2-0.2-3c0-4.1,1.1-7.6,3.3-10.6c2.2-3,5-4.6,8.5-4.6c2,0,3.7,0.5,5.2,1.4
		c-1.4,0.7-3.4,2.6-3.4,2.6c-1.2,1.2-2.3,2.6-3.1,4.1c-1.5,2.7-2.2,5.1-2.2,7.3c0,3,0.6,5.7,1.8,8c0.8,1.6,1.9,3,3.2,4.3
		c0.9,0.9,2,1.7,3,2.3C45.9,68.3,44.4,68.6,42.8,68.6z M50,65.9c-0.5-0.5-1-1-1.5-1.6c-0.7-1-1.3-2.3-1.8-3.7
		c-0.9-2.8-1.4-5.6-1.4-8.3c0-1.9,0.4-4,1.2-6.3c0.7-2.1,1.9-3.8,3.4-5.4c0.3,0.3,0.9,1,0.9,1c1,1.3,1.9,2.7,2.4,4.3
		c0.8,2.3,1.2,4.4,1.2,6.2c0,2.7-0.4,5.4-1.4,8.3C52.5,62.9,51.4,64.7,50,65.9z M57.1,68.6c-1.6,0-3-0.3-4.5-1
		c1.1-0.6,2.1-1.4,3.1-2.3c3.3-3.1,4.9-7.2,4.9-12.2c0-2.2-0.7-4.7-2.2-7.4c-1.5-2.7-3.6-4.9-6.5-6.6c0,0-0.1,0-0.1,0
		c1.5-0.9,3.2-1.4,5.2-1.4c0.5,0,1,0,1.5,0.1c2.8,0.4,5.1,1.9,7,4.5c2.2,3,3.3,6.6,3.3,10.6c0,4.2-1.1,7.8-3.2,11
		C63.5,67.1,60.6,68.6,57.1,68.6z"/>
	
		<linearGradient id="SVGID_3_" gradientUnits="userSpaceOnUse" x1="50.017" y1="71.4175" x2="50.017" y2="64.6324" gradientTransform="matrix(1 0 0 -1 0 99.896)">
		<stop  offset="0" style="stop-color:#B08E39"/>
		<stop  offset="1" style="stop-color:#E8D57C"/>
	</linearGradient>
	<path class="st3" d="M55.3,31.8H54c0,0.5-0.1,0.9-0.2,1.3c0,0.1-0.1,0.1-0.1,0.2v0c0,0,0,0.1,0,0.1s0,0,0,0c0,0,0,0,0,0.1
		c0,0,0,0,0,0c0,0,0,0,0,0.1c0,0,0,0,0,0.1c0,0,0,0,0,0.1c0,0,0,0,0,0.1l0,0c0,0,0,0.1-0.1,0.1c-0.4,0.7-1,1-1.8,1
		c-0.3,0-0.7-0.1-1-0.2c0.2-0.1,0.4-0.3,0.7-0.5c0,0,0,0,0.1-0.1c0,0,0,0,0,0l0,0c0,0,0,0,0,0l0,0l0,0l0,0c0,0,0,0,0,0l0,0l0,0l0,0
		l0,0l0,0l0,0c0,0,0,0,0,0l0,0c0,0,0,0,0,0c0,0,0,0,0,0c0,0,0,0,0,0c0,0,0,0,0,0c0,0,0,0,0,0c0,0,0,0,0,0v0c0,0,0,0,0,0v0
		c0,0,0,0,0,0v0c0,0,0,0,0,0v0c0,0,0,0,0,0v0c0,0,0,0,0,0v0c0,0,0,0,0-0.1v0c0,0,0,0,0-0.1v0c0,0,0,0,0-0.1v0c0,0,0,0,0-0.1v0
		c0,0,0,0,0-0.1c0,0,0,0,0,0c0,0,0,0,0-0.1c0,0,0,0,0,0c0,0,0,0,0-0.1c0,0,0,0,0,0c0,0,0,0,0-0.1c0,0,0,0,0,0c0,0,0,0,0-0.1
		c0,0,0,0,0,0c0,0,0,0,0-0.1c0,0,0,0,0,0c0,0,0,0,0-0.1c0,0,0-0.1,0-0.1c0,0,0-0.1,0-0.1c0,0,0-0.1,0-0.1c0,0,0-0.1,0-0.1
		c0,0,0-0.1,0-0.1c0-0.5-0.2-1-0.5-1.6c-0.3-0.6-0.8-1-1.4-1.4c0,0-0.2-0.2-0.4-0.2c0,0-0.4,0.2-0.4,0.2c-0.2,0.1-0.5,0.4-0.6,0.5
		c-0.3,0.3-0.5,0.5-0.7,0.9c-0.3,0.6-0.5,1.1-0.5,1.6c0,0,0,0.1,0,0.1c0,0,0,0.1,0,0.1c0,0,0,0.1,0,0.1c0,0,0,0.1,0,0.1
		c0,0,0,0.1,0,0.1c0,0,0,0,0,0.1c0,0,0,0,0,0c0,0,0,0,0,0.1c0,0,0,0,0,0c0,0,0,0,0,0.1c0,0,0,0,0,0c0,0,0,0,0,0.1c0,0,0,0,0,0
		c0,0,0,0,0,0.1c0,0,0,0,0,0c0,0,0,0,0,0.1c0,0,0,0,0,0c0,0,0,0,0,0.1v0c0,0,0,0,0,0.1v0c0,0,0,0,0,0.1v0c0,0,0,0,0,0.1v0
		c0,0,0,0,0,0.1v0c0,0,0,0,0,0v0c0,0,0,0,0,0v0c0,0,0,0,0,0v0c0,0,0,0,0,0v0c0,0,0,0,0,0v0c0,0,0,0,0,0c0,0,0,0,0,0c0,0,0,0,0,0
		c0,0,0,0,0,0c0,0,0,0,0,0c0,0,0,0,0,0c0,0,0,0,0,0c0,0,0,0,0,0c0,0,0,0,0,0c0,0,0,0,0,0c0,0,0,0,0,0l0,0c0,0,0,0,0,0l0,0l0,0l0,0
		c0,0,0,0,0,0l0,0c0,0,0,0,0,0l0,0c0,0,0,0,0,0c0,0,0,0,0.1,0.1c0.2,0.2,0.4,0.4,0.7,0.5c-0.3,0.1-0.6,0.2-1,0.2
		c-0.7,0-1.4-0.3-1.8-1c0,0,0-0.1-0.1-0.1c0,0,0,0,0,0c0,0,0,0,0-0.1l0,0c0,0,0,0,0-0.1c0,0,0,0,0-0.1c0,0,0,0,0-0.1
		c0-0.1-0.1-0.2-0.1-0.2v0c0,0,0,0,0-0.1c-0.2-0.4-0.2-0.9-0.3-1.4h-1.3c0,0.8,0.4,1.5,1,2.2c0,0,0,0,0.1,0.1c0,0,0,0,0,0
		c0,0,0.1,0.1,0.1,0.1c0.8,0.7,1.7,1.1,2.7,1.1c0.5,0,0.9-0.1,1.4-0.2c0.4,0.2,0.9,0.2,1.4,0.2c1.1,0,2-0.4,2.7-1.1
		c0,0,0.1-0.1,0.1-0.1c0,0,0,0,0,0c0,0,0.1-0.1,0.1-0.1c0,0,0.1-0.1,0.1-0.1c0,0,0,0,0,0c0,0,0.1-0.1,0.1-0.1c0,0,0-0.1,0.1-0.1
		c0,0,0,0,0,0c0,0,0-0.1,0.1-0.1c0,0,0-0.1,0.1-0.1c0,0,0-0.1,0.1-0.1c0,0,0-0.1,0.1-0.1c0,0,0-0.1,0.1-0.1c0,0,0-0.1,0-0.1
		c0,0,0-0.1,0-0.1c0,0,0-0.1,0-0.1c0,0,0-0.1,0-0.1c0-0.1,0-0.1,0.1-0.2C55.2,32.2,55.3,32,55.3,31.8z"/>
</g>
</svg>
