<svg width="133" height="34" viewBox="0 0 133 34" fill="none" xmlns="http://www.w3.org/2000/svg">
<path d="M0.729695 0.516692C0.506473 0.665506 0.432067 1.18636 0.655288 1.48399C1.02732 1.93043 1.32495 2.00484 3.40835 2.00484H5.41735L4.59887 2.52569C3.63158 3.12095 2.36665 4.38587 2.29225 4.7579C2.21784 4.98113 2.44106 5.35316 2.66428 5.35316C2.73869 5.35316 3.25954 5.12994 3.8548 4.7579C5.41735 3.93943 6.9799 3.41857 10.7747 2.6745C13.4533 2.15365 14.6438 2.07925 22.8286 2.07925H30.3438L29.3765 2.37687C26.6234 3.12094 24.3168 4.31146 21.6381 6.32045C20.8196 6.91571 20.6708 7.06453 20.6708 7.36216C20.6708 7.51097 20.8196 7.65979 20.894 7.65979C21.0429 7.65979 21.8613 7.36215 22.7542 6.8413C27.9627 4.31146 34.0641 2.74891 39.1238 2.74891H40.5375L39.9423 3.19535C38.0821 4.6835 36.8916 7.13893 36.8916 9.59437C36.8916 11.4546 37.4868 13.0171 38.8262 14.3564C39.4214 15.0261 39.7935 15.2493 40.6119 15.6958C41.5792 16.2166 41.6536 16.2166 42.8442 16.2166C43.9603 16.2166 44.1835 16.2166 44.7043 15.919C45.4484 15.5469 46.2669 14.8029 46.6389 14.0588C47.2342 12.8683 47.4574 11.3801 47.2342 10.4128C47.0854 9.892 46.2669 8.92471 45.5972 8.55267C44.2579 7.73419 42.3977 7.73419 41.5792 8.40386C41.2072 8.70149 40.9096 9.44556 40.9096 9.96641C40.9096 10.4873 41.1328 10.7105 41.5792 10.9337C42.0257 11.0825 42.4721 10.9337 42.6953 10.4873C42.9186 10.0408 43.2906 9.892 44.1091 9.892C46.1925 9.892 46.9366 12.5707 45.2996 14.2076C44.5555 14.9517 43.8115 15.1749 42.6953 15.1005C40.2399 14.9517 38.1565 12.4962 38.1565 9.74318C38.1565 7.43656 39.1238 5.42757 40.8352 4.16264C42.0257 3.26976 42.9186 3.04654 45.2252 2.97213C47.011 2.89772 47.0854 2.89772 48.3503 3.26976C51.2522 4.01383 54.2285 5.27875 56.7583 6.7669C57.8744 7.43656 60.0322 9.51996 61.2971 11.1569C62.1156 12.273 62.4133 12.9427 62.6365 14.5052C63.0085 16.8863 61.7436 19.2673 59.6602 20.309C59.0649 20.6066 58.8417 20.681 58.0232 20.681C56.9071 20.681 56.1631 20.3834 55.3446 19.4905C54.1541 18.3 53.7076 16.7375 54.3029 15.919C54.6749 15.3237 55.4934 15.0261 56.3119 15.1005C57.3536 15.1749 57.6512 15.3981 57.6512 16.0678C57.6512 17.4071 59.2882 17.7792 59.809 16.5142C60.181 15.5469 59.8834 14.5052 59.0649 13.6124C58.172 12.7195 57.428 12.4962 56.0142 12.7939C54.3773 13.1659 53.2612 14.2076 52.8891 15.8446C52.7403 16.5142 52.7403 16.8119 52.8147 17.4071C53.1124 18.9697 54.4517 20.681 55.8654 21.3507C58.0232 22.318 59.8834 22.0204 61.7436 20.2346C62.6365 19.3417 63.3805 18.1512 63.6782 17.0351C63.9758 15.8446 63.9758 15.8446 64.2734 17.0351C64.7199 19.0441 64.7199 20.9787 64.1246 22.1692C63.827 22.8389 61.446 26.4104 61.2227 26.6336C60.9251 26.8568 60.9995 27.0056 61.3716 27.2289C61.7436 27.4521 63.9014 29.8331 64.7199 30.9492C65.0175 31.3213 65.5384 32.1397 65.9104 32.8094C66.2824 33.4047 66.5801 33.9999 66.6545 33.9999C66.7289 33.9999 67.0265 33.4791 67.3985 32.8094C67.7706 32.2142 68.2914 31.3213 68.5891 30.9492C69.4075 29.8331 71.5653 27.4521 71.9374 27.2289C72.3094 27.0056 72.3838 26.8568 72.0862 26.6336C71.863 26.4104 69.4819 22.8389 69.1843 22.1692C68.6635 21.0531 68.5891 19.1185 69.0355 17.0351C69.3331 15.8446 69.3331 15.919 69.6308 17.0351C69.854 18.1512 70.598 19.4161 71.5653 20.2346C73.3511 21.946 75.2857 22.318 77.4435 21.3507C78.8572 20.681 80.1966 18.9697 80.4942 17.4071C80.5686 16.8119 80.5686 16.5142 80.4198 15.8446C80.0478 14.2076 79.0061 13.0915 77.2947 12.7939C75.9554 12.4962 75.1369 12.7195 74.244 13.6124C73.3511 14.5052 73.0535 15.6213 73.4999 16.5142C73.872 17.3327 74.6904 17.5559 75.3601 16.9607C75.6577 16.6631 75.7321 16.5142 75.7321 16.0678C75.7321 15.3981 76.0298 15.1749 77.0715 15.1005C77.8899 15.0261 78.634 15.3981 79.0805 15.919C79.6757 16.7375 79.2293 18.3744 78.0388 19.4905C77.1459 20.3834 76.4762 20.681 75.3601 20.681C74.5416 20.681 74.3184 20.6066 73.7231 20.309C71.6397 19.2673 70.3748 16.8119 70.7469 14.5052C70.9701 12.9427 71.2677 12.273 72.0862 11.1569C73.2767 9.51996 75.5089 7.43656 76.625 6.7669C79.1549 5.27875 82.1312 4.08824 85.033 3.26976C86.298 2.89772 86.4468 2.89772 88.1581 2.97213C90.5392 3.04654 91.3577 3.26976 92.5482 4.16264C94.2595 5.42757 95.2268 7.51097 95.2268 9.74318C95.2268 12.4962 93.2178 14.8773 90.688 15.1005C89.5719 15.1749 88.8278 14.9517 88.0837 14.2076C86.8188 12.9427 86.8188 11.1569 88.0837 10.264C88.4558 9.96641 88.679 9.892 89.2742 9.892C90.1671 9.892 90.4648 10.0408 90.688 10.4873C90.9112 10.9337 91.3577 11.0825 91.8041 10.9337C92.2505 10.7849 92.4738 10.4873 92.4738 9.96641C92.4738 9.51996 92.1761 8.70149 91.8041 8.40386C90.9856 7.65979 89.1254 7.73419 87.7861 8.55267C87.1164 8.92471 86.298 9.892 86.1491 10.4128C85.8515 11.3801 86.0747 12.8683 86.7444 14.0588C87.1164 14.8029 87.9349 15.5469 88.679 15.919C89.2743 16.2166 89.4975 16.2166 90.5392 16.2166C91.7297 16.2166 91.8041 16.2166 92.7714 15.6958C94.4083 14.8773 95.8221 13.1659 96.2685 11.3057C96.9382 8.62708 95.7477 5.05553 93.3666 3.26976L92.7714 2.82332H94.1851C99.2448 2.82332 105.346 4.31146 110.555 6.91571C111.522 7.36216 112.34 7.73419 112.415 7.73419C112.564 7.73419 112.638 7.58538 112.638 7.43656C112.638 7.21334 112.489 7.06453 111.671 6.39486C108.992 4.38587 106.686 3.19535 103.932 2.45128L102.965 2.15365H110.48C118.665 2.15365 119.93 2.22806 122.534 2.74891C126.403 3.56739 127.892 4.01383 129.454 4.83231C130.049 5.12994 130.57 5.42757 130.645 5.42757C130.868 5.42757 131.091 5.05553 131.017 4.83231C130.942 4.46027 129.603 3.19535 128.71 2.6001L127.892 2.07925H129.901C131.984 2.07925 132.282 2.07924 132.654 1.55839C132.802 1.33517 132.802 0.814324 132.654 0.665509C132.728 0.367881 1.02732 0.29347 0.729695 0.516692ZM74.3928 2.15365C73.7231 2.37687 71.9374 3.34417 70.8957 4.08824C69.3331 5.12994 68.5891 5.87401 67.6218 7.13893C67.1753 7.65978 66.8033 8.10623 66.8033 8.10623C66.8033 8.10623 66.4312 7.65978 65.9848 7.13893C65.0175 5.87401 64.2734 5.12994 62.7109 4.08824C61.6692 3.41857 59.9578 2.45128 59.2137 2.15365C59.1393 2.15365 62.4877 2.07925 66.8033 2.07925C71.1189 2.07925 74.4672 2.07925 74.3928 2.15365ZM55.5678 2.6745C56.6839 2.89772 58.4697 3.49298 59.2137 3.79061C60.0322 4.16264 61.9668 5.42757 62.8597 6.09723C64.199 7.13893 65.3895 8.55267 65.9104 9.81759C66.7289 11.8266 66.9521 11.8266 67.7706 9.81759C68.2914 8.55267 69.4819 7.06452 70.8213 6.09723C71.7886 5.35316 73.7231 4.16265 74.4672 3.7162C75.5089 3.19535 77.9644 2.52569 79.4525 2.30247C79.9733 2.22806 79.8989 2.30247 78.7084 2.89772C74.0208 5.35316 70.0772 9.44555 68.217 13.7612C67.7706 14.8773 67.1753 16.7375 67.0265 17.8536C66.9521 18.3 66.8777 18.672 66.8033 18.672C66.7289 18.672 66.6545 18.3 66.5801 17.8536C66.3568 16.7375 65.836 14.8773 65.3895 13.7612C64.7943 12.4218 64.1246 11.2313 63.0829 9.81759C60.8507 6.8413 58.172 4.60909 54.8981 2.89772C53.7076 2.22806 53.6332 2.22806 54.1541 2.30247C54.4517 2.45128 55.0469 2.60009 55.5678 2.6745ZM67.0265 20.4578C67.1753 22.0204 68.0682 23.8805 69.4075 25.7407L70.0028 26.5592L69.1099 27.6753C68.6635 28.2706 67.9194 29.2379 67.5473 29.7587C67.1753 30.2796 66.8033 30.726 66.8033 30.726C66.8033 30.726 66.4312 30.2796 66.0592 29.7587C65.6872 29.2379 65.0175 28.2706 64.4967 27.6753L63.6038 26.5592L64.199 25.7407C65.5384 23.8805 66.4312 22.0204 66.5801 20.4578C66.6545 20.0858 66.7289 19.8626 66.7289 19.8626C66.8777 19.8626 66.9521 20.0858 67.0265 20.4578Z" fill="#ECD2BD"/>
</svg>
