<svg width="126" height="40" viewBox="0 0 126 40" fill="none" xmlns="http://www.w3.org/2000/svg">
<path d="M61.8249 13.0789V14.1551H55.846V27.2289H53.0559V14.1551H47.0371V13.0789H61.8249Z" fill="#8D131E"/>
<path d="M55.8886 27.2707H53.0188V14.1968H47V13.0409H61.8675V14.1968H55.8886V27.2707ZM53.0985 27.1511H55.7691V14.0772H61.748V13.1206H47.0797V14.0772H53.0985V27.1511Z" fill="#8D131E"/>
<path d="M78.0905 13.0398L73.8256 23.3235H73.7458L68.8033 13.0398H65.8936V27.2696H67.2089V16.2285H67.3285L72.6696 27.2297L72.7095 27.2696H73.3074L78.0506 16.109V27.2696H80.9604V13.0398H78.0905Z" fill="#8D131E"/>
<path d="M97.1423 13.0398L92.8773 23.3235H92.7976L87.8949 13.0398H87.855H84.9453V27.2696H86.2607V16.2285H86.3803L91.7613 27.2297V27.2696H92.399L97.1024 16.109H97.1423V27.2696H100.012V13.0398H97.1423Z" fill="#8D131E"/>
<path d="M123.13 13.0398L118.865 23.3235H118.786L113.843 13.0398H110.894V27.2696H112.249V16.2285H112.328L117.709 27.2297V27.2696H118.347L123.091 16.109V27.2696H126V13.0398H123.13Z" fill="#8D131E"/>
<path d="M106.908 13H104.038V27.2298H106.908V13Z" fill="#8D131E"/>
<path d="M40 31.024C40 35.963 35.9926 40 31.098 40H8.91682C4.00739 40 0 35.963 0 31.024V8.97597C0 4.03697 4.00739 0 8.90203 0H31.0832C35.9778 0 39.9852 4.03697 39.9852 8.97597V31.024H40Z" fill="#8D131E"/>
<path d="M34.2769 20.8207C34.6614 20.8207 35.0015 20.5545 35.0902 20.1996C35.1789 20.5545 35.519 20.8207 35.9035 20.8207C36.3767 20.8207 36.7464 20.4362 36.7464 19.9778C36.7464 19.5046 36.3619 19.1349 35.9035 19.1349C35.519 19.1349 35.1789 19.4011 35.0902 19.756C35.0015 19.4011 34.6614 19.1349 34.2769 19.1349C33.8037 19.1349 33.434 19.5194 33.434 19.9778C33.4192 20.4362 33.8037 20.8207 34.2769 20.8207Z" fill="#F7D7CB"/>
<path d="M34.1736 22.4325C33.9666 23.6746 33.5229 24.4436 32.8279 25.4491C31.6301 27.1497 29.1606 27.6968 27.2087 27.7855C26.3658 27.8151 25.5377 27.7707 24.7096 27.6229C24.7244 27.6229 24.754 27.6081 24.7688 27.6081C26.1736 27.2827 27.4305 26.5729 28.5396 25.4935C30.1218 23.9408 30.9056 22.1811 30.9056 20.2291C30.9056 18.3955 30.1958 16.7541 28.7614 15.3197C27.327 13.8853 25.5229 13.1755 23.3344 13.1755C22.1218 13.1755 20.998 13.4121 19.9777 13.8705C18.9573 13.4121 17.8335 13.1755 16.6209 13.1755C15.9998 13.1755 15.4083 13.2347 14.8464 13.353C13.4416 13.6487 12.2143 14.2994 11.1939 15.3197C10.2623 16.2513 9.62645 17.2864 9.31592 18.3955C9.13847 18.987 9.06453 19.5933 9.06453 20.2291C9.06453 22.1811 9.84826 23.9408 11.4305 25.4935C12.5544 26.6025 13.8409 27.3123 15.29 27.6229C14.4619 27.7707 13.6338 27.8299 12.791 27.7855C10.839 27.6968 8.36952 27.1644 7.17174 25.4491C6.47673 24.4436 6.01832 23.6746 5.82608 22.4325H3.23828L3.31222 22.6543C3.48967 23.2014 3.69669 23.719 3.99244 24.1922C4.67266 25.3308 6.04789 27.0314 8.57654 27.8299C8.96102 27.963 9.36028 28.0813 9.75954 28.17C11.2087 28.5249 13.3233 28.4805 13.3233 28.4805C14.4176 28.451 15.5118 28.3327 16.5765 28.17C16.8575 28.1256 17.1089 28.0813 17.3603 28.0369C19.6523 28.4066 21.5008 28.3179 22.876 28.0813C23.0387 28.1108 23.2161 28.1404 23.3936 28.17C24.4287 28.3179 25.4934 28.451 26.5433 28.4805C26.5433 28.4805 28.9536 28.5101 30.2401 28.1848C30.6394 28.0813 31.0387 27.9778 31.4231 27.8447C33.9518 27.0461 35.327 25.3604 36.0072 24.207C36.303 23.7338 36.5248 23.2458 36.6875 22.6691L36.7466 22.4473L34.1736 22.4325ZM16.8279 27.2088C15.2753 27.2088 14.0331 26.5138 13.1015 25.1386C12.4065 24.1034 11.9629 22.9352 11.7854 21.6635C11.7263 21.2347 11.6967 20.8059 11.6967 20.3474C11.6967 18.573 12.1699 17.0203 13.1311 15.6894C14.0923 14.3585 15.3344 13.6783 16.8723 13.6783C17.7448 13.6783 18.4989 13.8853 19.1496 14.2846C18.5581 14.5951 17.6412 15.4084 17.6412 15.4084C17.0941 15.9408 16.6209 16.5323 16.266 17.1829C15.6154 18.3511 15.29 19.4158 15.29 20.3918C15.29 21.7079 15.5414 22.8761 16.059 23.8816C16.4139 24.5766 16.8723 25.1977 17.4638 25.7596C17.8778 26.1589 18.3215 26.4842 18.7947 26.7652C18.1884 27.0609 17.5229 27.2088 16.8279 27.2088ZM19.9777 26.0406C19.7558 25.8336 19.5192 25.597 19.327 25.3456C19.0017 24.8872 18.7503 24.34 18.5433 23.7042C18.144 22.462 17.9518 21.2495 17.9518 20.0665C17.9518 19.2236 18.1292 18.3068 18.4841 17.316C18.8094 16.414 19.3122 15.6303 19.9777 14.95C20.1255 15.0979 20.3769 15.4084 20.3769 15.4084C20.8353 15.9704 21.1902 16.6062 21.4416 17.3012C21.7965 18.292 21.974 19.2088 21.974 20.0369C21.974 21.2199 21.7817 22.4177 21.3825 23.6598C21.0719 24.6949 20.6135 25.4787 19.9777 26.0406ZM23.0978 27.2088C22.4176 27.2088 21.7669 27.0609 21.1459 26.7652C21.6191 26.4842 22.0775 26.1589 22.4915 25.7596C23.9407 24.3992 24.6505 22.6099 24.6505 20.4066C24.6505 19.4306 24.3252 18.3511 23.6745 17.1829C23.0239 16.0147 22.0775 15.0535 20.8353 14.2846C20.8205 14.2846 20.8057 14.2698 20.8057 14.2698C21.4564 13.8705 22.2253 13.6635 23.083 13.6635C23.3048 13.6635 23.5118 13.6783 23.7189 13.7079C24.9462 13.8853 25.9666 14.536 26.7799 15.6598C27.7263 16.9907 28.2143 18.5434 28.2143 20.3031C28.2143 22.1219 27.7411 23.7338 26.8094 25.109C25.8926 26.5286 24.6505 27.2088 23.0978 27.2088Z" fill="#F7D7CB"/>
<path d="M22.2991 11.0905H21.7372C21.7372 11.2976 21.6928 11.4898 21.6337 11.6673C21.6189 11.6968 21.6041 11.7264 21.6041 11.756V11.7708C21.6041 11.7856 21.5893 11.8003 21.5893 11.8003C21.5893 11.8003 21.5893 11.8151 21.5745 11.8151C21.5745 11.8299 21.5597 11.8299 21.5597 11.8447C21.5597 11.8447 21.5597 11.8595 21.5449 11.8595C21.5449 11.8743 21.5301 11.8743 21.5301 11.8891C21.5301 11.9039 21.5154 11.9039 21.5154 11.9186C21.5154 11.9334 21.5006 11.9334 21.5006 11.9482C21.5006 11.963 21.4858 11.963 21.4858 11.9778L21.471 11.9926C21.4562 12.0074 21.4562 12.0222 21.4414 12.0369C21.2492 12.3327 20.983 12.4806 20.6577 12.4806C20.5098 12.4806 20.3619 12.451 20.2288 12.3918C20.3324 12.3327 20.4211 12.2587 20.5246 12.17C20.5394 12.1552 20.5394 12.1552 20.5542 12.1405C20.5542 12.1405 20.5542 12.1405 20.569 12.1257L20.5837 12.1109C20.5837 12.1109 20.5837 12.0961 20.5985 12.0961L20.6133 12.0813L20.6281 12.0665L20.6429 12.0517C20.6429 12.0517 20.6429 12.0369 20.6577 12.0369L20.6725 12.0222L20.6873 12.0074L20.702 11.9926L20.7168 11.9778L20.7316 11.963L20.7464 11.9482C20.7464 11.9482 20.7464 11.9334 20.7612 11.9334L20.776 11.9186C20.776 11.9186 20.776 11.9039 20.7908 11.9039C20.7908 11.9039 20.7908 11.8891 20.8056 11.8891C20.8056 11.8891 20.8056 11.8743 20.8203 11.8743C20.8203 11.8743 20.8203 11.8595 20.8351 11.8595C20.8351 11.8595 20.8351 11.8447 20.8499 11.8447C20.8499 11.8447 20.8499 11.8299 20.8647 11.8299V11.8151C20.8647 11.8151 20.8647 11.8003 20.8795 11.8003V11.7856C20.8795 11.7856 20.8795 11.7708 20.8943 11.7708V11.756C20.8943 11.756 20.8943 11.7412 20.9091 11.7412V11.7264C20.9091 11.7264 20.9091 11.7116 20.9239 11.7116V11.6968C20.9239 11.6968 20.9239 11.682 20.9386 11.682V11.6673C20.9386 11.6525 20.9386 11.6525 20.9534 11.6377V11.6229C20.9534 11.6081 20.9534 11.6081 20.9682 11.5933V11.5785C20.9682 11.5637 20.9682 11.5637 20.983 11.549V11.5342C20.983 11.5194 20.983 11.5194 20.983 11.5046V11.4898C20.983 11.475 20.983 11.475 20.983 11.4602C20.983 11.4602 20.983 11.4602 20.983 11.4454C20.983 11.4307 20.983 11.4307 20.983 11.4159C20.983 11.4159 20.983 11.4159 20.983 11.4011C20.983 11.3863 20.983 11.3863 20.983 11.3715C20.983 11.3715 20.983 11.3715 20.983 11.3567C20.983 11.3419 20.983 11.3419 20.983 11.3271C20.983 11.3271 20.983 11.3271 20.983 11.3124C20.983 11.2976 20.983 11.2976 20.983 11.2828C20.983 11.2828 20.983 11.2828 20.983 11.268C20.983 11.2532 20.983 11.2532 20.983 11.2384C20.983 11.2384 20.983 11.2384 20.983 11.2236C20.983 11.2088 20.983 11.2088 20.983 11.1941C20.983 11.1793 20.983 11.1645 20.983 11.1645C20.983 11.1497 20.983 11.1349 20.983 11.1349C20.983 11.1201 20.983 11.1053 20.983 11.0905C20.983 11.0758 20.983 11.061 20.983 11.0462C20.983 11.0314 20.983 11.0166 20.983 11.0166C20.983 10.8096 20.9091 10.5878 20.776 10.3364C20.6429 10.085 20.4359 9.89276 20.1845 9.7301C20.1845 9.7301 20.081 9.65616 20.007 9.62659C20.007 9.62659 19.8444 9.71531 19.8148 9.7301C19.7261 9.78925 19.593 9.89276 19.5338 9.93712C19.4155 10.0554 19.312 10.1737 19.2233 10.3216C19.0902 10.573 19.0163 10.7948 19.0163 11.0018C19.0163 11.0166 19.0163 11.0314 19.0163 11.0314C19.0163 11.0462 19.0163 11.061 19.0163 11.0758C19.0163 11.0905 19.0163 11.1053 19.0163 11.1201C19.0163 11.1349 19.0163 11.1497 19.0163 11.1497C19.0163 11.1645 19.0163 11.1793 19.0163 11.1793C19.0163 11.1941 19.0163 11.1941 19.0163 11.2088C19.0163 11.2088 19.0163 11.2088 19.0163 11.2236C19.0163 11.2384 19.0163 11.2384 19.0163 11.2532C19.0163 11.2532 19.0163 11.2532 19.0163 11.268C19.0163 11.2828 19.0163 11.2828 19.0163 11.2976C19.0163 11.2976 19.0163 11.2976 19.0163 11.3124C19.0163 11.3271 19.0163 11.3271 19.0163 11.3419C19.0163 11.3419 19.0163 11.3419 19.0163 11.3567C19.0163 11.3715 19.0163 11.3715 19.0163 11.3863C19.0163 11.3863 19.0163 11.3863 19.0163 11.4011C19.0163 11.4159 19.0163 11.4159 19.0163 11.4307C19.0163 11.4307 19.0163 11.4307 19.0163 11.4454C19.0163 11.4602 19.0163 11.4602 19.0163 11.475V11.4898C19.0163 11.5046 19.0163 11.5046 19.0163 11.5194V11.5342C19.0163 11.549 19.0163 11.549 19.0311 11.5637V11.5785C19.0311 11.5933 19.0311 11.5933 19.0459 11.6081V11.6229C19.0459 11.6377 19.0459 11.6377 19.0606 11.6525V11.6673C19.0606 11.6673 19.0606 11.682 19.0754 11.682V11.6968C19.0754 11.6968 19.0754 11.7116 19.0902 11.7116V11.7264C19.0902 11.7264 19.0902 11.7412 19.105 11.7412V11.756C19.105 11.756 19.105 11.7708 19.1198 11.7708V11.7856C19.1198 11.7856 19.1198 11.8003 19.1346 11.8003V11.8151C19.1346 11.8151 19.1346 11.8299 19.1494 11.8299C19.1494 11.8299 19.1494 11.8447 19.1642 11.8447C19.1642 11.8447 19.1642 11.8595 19.1789 11.8595C19.1789 11.8595 19.1789 11.8743 19.1937 11.8743C19.1937 11.8743 19.1937 11.8891 19.2085 11.8891C19.2085 11.8891 19.2085 11.9039 19.2233 11.9039C19.2233 11.9039 19.2233 11.9186 19.2381 11.9186C19.2381 11.9186 19.2381 11.9334 19.2529 11.9334C19.2529 11.9334 19.2529 11.9482 19.2677 11.9482C19.2677 11.9482 19.2677 11.963 19.2824 11.963C19.2824 11.963 19.2825 11.9778 19.2972 11.9778L19.312 11.9926C19.312 11.9926 19.312 12.0074 19.3268 12.0074L19.3416 12.0222L19.3564 12.0369L19.3712 12.0517C19.3712 12.0517 19.3712 12.0665 19.386 12.0665L19.4007 12.0813C19.4007 12.0813 19.4008 12.0961 19.4155 12.0961L19.4303 12.1109C19.4303 12.1109 19.4303 12.1109 19.4451 12.1257C19.4599 12.1405 19.4599 12.1404 19.4747 12.1552C19.5634 12.244 19.6669 12.3179 19.7704 12.377C19.6373 12.4362 19.4895 12.4658 19.3416 12.4658C19.0163 12.4658 18.7501 12.3179 18.5579 12.0222C18.5431 12.0074 18.5431 11.9926 18.5283 11.9778C18.5283 11.9778 18.5283 11.963 18.5135 11.963C18.5135 11.9482 18.4987 11.9482 18.4987 11.9334L18.4839 11.9186C18.4839 11.9039 18.4691 11.9039 18.4691 11.8891C18.4691 11.8743 18.4544 11.8743 18.4544 11.8595C18.4544 11.8447 18.4396 11.8447 18.4396 11.8299C18.4248 11.8003 18.41 11.756 18.3952 11.7264V11.7116C18.3952 11.6968 18.3804 11.6968 18.3804 11.682C18.3065 11.4898 18.2769 11.2828 18.2621 11.0758H17.7002C17.715 11.4307 17.8629 11.7412 18.129 12.0369C18.1438 12.0517 18.1438 12.0517 18.1586 12.0665C18.1586 12.0665 18.1586 12.0665 18.1734 12.0813C18.1882 12.0961 18.203 12.1109 18.203 12.1109C18.5431 12.4362 18.9423 12.5989 19.4007 12.5989C19.6226 12.5989 19.8148 12.5693 20.007 12.4953C20.1845 12.5693 20.3915 12.5989 20.6133 12.5989C21.0865 12.5989 21.4858 12.4362 21.8111 12.1109C21.8259 12.0961 21.8407 12.0813 21.8555 12.0665C21.8555 12.0665 21.8555 12.0665 21.8703 12.0517C21.885 12.0369 21.8998 12.0222 21.9146 12.0074C21.9294 11.9926 21.9442 11.9778 21.9442 11.963C21.9442 11.963 21.9442 11.963 21.959 11.9482C21.9738 11.9334 21.9886 11.9186 21.9886 11.9039C22.0033 11.8891 22.0033 11.8743 22.0181 11.8595C22.0181 11.8595 22.0181 11.8595 22.0181 11.8447C22.0329 11.8299 22.0329 11.8151 22.0477 11.8003C22.0625 11.7856 22.0625 11.7708 22.0773 11.756C22.0921 11.7412 22.0921 11.7264 22.1069 11.7116C22.1216 11.6968 22.1216 11.682 22.1364 11.6673C22.1512 11.6525 22.1512 11.6377 22.166 11.6229C22.166 11.6081 22.1808 11.5933 22.1808 11.5785C22.1808 11.5637 22.1956 11.549 22.1956 11.5342C22.1956 11.5194 22.2104 11.5046 22.2104 11.4898C22.2104 11.475 22.2252 11.4602 22.2252 11.4454C22.2399 11.4159 22.2399 11.3863 22.2547 11.3419C22.2843 11.268 22.2991 11.1793 22.2991 11.0905Z" fill="#F7D7CB"/>
</svg>
