<svg width="20" height="20" viewBox="0 0 20 20" fill="none" xmlns="http://www.w3.org/2000/svg">
<path fill-rule="evenodd" clip-rule="evenodd" d="M2.49178 4.0613C2.75539 3.624 4.20865 2.03651 5.24425 2.08444C5.55407 2.11097 5.82795 2.29753 6.05047 2.5149H6.05133C6.56142 3.01468 8.02495 4.90083 8.10711 5.29791C8.30995 6.2718 7.14854 6.83319 7.50373 7.81478C8.40923 10.0304 9.96947 11.5905 12.1862 12.4951C13.167 12.8511 13.7284 11.6906 14.7024 11.8926C15.0995 11.9756 16.9867 13.4381 17.4857 13.9491V13.9491C17.7022 14.1707 17.8905 14.4454 17.9162 14.7552C17.9547 15.8463 16.2686 17.3191 15.94 17.5074C15.1646 18.0628 14.1529 18.0525 12.9196 17.4792C9.47821 16.0474 3.97842 10.6517 2.52003 7.08051C1.962 5.85417 1.92435 4.83579 2.49178 4.0613Z" stroke="#303443" stroke-width="1.5" stroke-linecap="round" stroke-linejoin="round"/>
<path d="M12.1382 2.29175C15.2232 2.63425 17.659 5.06758 18.0057 8.15175" stroke="#303443" stroke-width="1.5" stroke-linecap="round" stroke-linejoin="round"/>
<path d="M12.1382 5.24426C13.6132 5.53176 14.7657 6.68426 15.0532 8.15926" stroke="#303443" stroke-width="1.5" stroke-linecap="round" stroke-linejoin="round"/>
</svg>
