<svg width="20" height="20" viewBox="0 0 20 20" fill="none" xmlns="http://www.w3.org/2000/svg">
<circle cx="10" cy="10" r="10" fill="#F14841"/>
<path d="M10.8815 9.99987L13.569 7.31862C13.6866 7.20093 13.7528 7.04131 13.7528 6.87487C13.7528 6.70843 13.6866 6.54881 13.569 6.43112C13.4513 6.31343 13.2916 6.24731 13.1252 6.24731C12.9588 6.24731 12.7991 6.31343 12.6815 6.43112L10.0002 9.11862L7.31896 6.43112C7.20127 6.31343 7.04164 6.24731 6.87521 6.24731C6.70877 6.24731 6.54915 6.31343 6.43146 6.43112C6.31377 6.54881 6.24765 6.70843 6.24765 6.87487C6.24765 7.04131 6.31377 7.20093 6.43146 7.31862L9.11896 9.99987L6.43146 12.6811C6.37288 12.7392 6.32638 12.8083 6.29465 12.8845C6.26292 12.9607 6.24658 13.0424 6.24658 13.1249C6.24658 13.2074 6.26292 13.2891 6.29465 13.3652C6.32638 13.4414 6.37288 13.5105 6.43146 13.5686C6.48956 13.6272 6.55868 13.6737 6.63485 13.7054C6.71101 13.7372 6.7927 13.7535 6.87521 13.7535C6.95771 13.7535 7.0394 13.7372 7.11557 13.7054C7.19173 13.6737 7.26085 13.6272 7.31896 13.5686L10.0002 10.8811L12.6815 13.5686C12.7396 13.6272 12.8087 13.6737 12.8848 13.7054C12.961 13.7372 13.0427 13.7535 13.1252 13.7535C13.2077 13.7535 13.2894 13.7372 13.3656 13.7054C13.4417 13.6737 13.5109 13.6272 13.569 13.5686C13.6275 13.5105 13.674 13.4414 13.7058 13.3652C13.7375 13.2891 13.7538 13.2074 13.7538 13.1249C13.7538 13.0424 13.7375 12.9607 13.7058 12.8845C13.674 12.8083 13.6275 12.7392 13.569 12.6811L10.8815 9.99987Z" fill="white"/>
</svg>
