<svg width="18" height="21" viewBox="0 0 18 21" fill="none" xmlns="http://www.w3.org/2000/svg">
<path fill-rule="evenodd" clip-rule="evenodd" d="M8.66481 16.6316L2.73346 19.881C2.25989 20.1271 1.67646 19.9529 1.41538 19.4874V19.4874C1.33985 19.3432 1.2991 19.1834 1.29639 19.0206V4.62242C1.29639 1.87643 3.17282 0.77803 5.87305 0.77803H12.2163C14.8341 0.77803 16.793 1.8032 16.793 4.43936V19.0206C16.793 19.2803 16.6898 19.5295 16.5061 19.7131C16.3224 19.8968 16.0733 20 15.8135 20C15.6479 19.9974 15.485 19.9567 15.3376 19.881L9.36961 16.6316C9.1497 16.5128 8.88472 16.5128 8.66481 16.6316Z" stroke="#303443" stroke-width="1.5" stroke-linecap="round" stroke-linejoin="round"/>
<path d="M5.36963 7.32266H12.6648" stroke="#303443" stroke-width="1.5" stroke-linecap="round" stroke-linejoin="round"/>
</svg>
