<svg width="22" height="28" viewBox="0 0 22 28" fill="none" xmlns="http://www.w3.org/2000/svg">
<path d="M8.40643 0.809366C10.3857 0.305459 12.5068 0.400381 14.4392 1.05546C16.865 1.86523 18.9779 3.57147 20.2763 5.77343C21.576 7.94491 22.0869 10.5851 21.6381 13.0789C21.3697 14.4605 20.8353 15.7836 20.0935 16.9777C19.3096 18.2703 18.2396 19.3508 17.2506 20.4828C15.167 22.8242 13.0869 25.1691 10.9998 27.507C8.45213 24.6512 5.90916 21.7918 3.36971 18.9289C1.84627 17.2168 0.688455 15.1262 0.32283 12.8445C-0.0674041 10.3648 0.490409 7.76093 1.80994 5.63046C3.26424 3.24218 5.69002 1.47265 8.40643 0.809366ZM9.774 2.13476C7.19236 2.46405 4.80994 3.96288 3.3533 6.11444C2.16971 7.85585 1.60135 10.0168 1.80525 12.1144C1.98924 14.3961 3.08494 16.5816 4.78182 18.1133C6.14236 19.3648 7.89197 20.1898 9.72596 20.4324C11.7908 20.7207 13.9588 20.3 15.7412 19.2101C17.7931 17.9949 19.3318 15.9488 19.9318 13.6414C20.3888 11.8941 20.3314 10.0144 19.7373 8.30702C19.0412 6.23515 17.567 4.44335 15.6861 3.33358C13.9224 2.29296 11.8037 1.84765 9.774 2.13476Z" fill="#C59F81"/>
<path d="M6.90382 7.44475C7.66554 7.07326 8.55851 7.08381 9.37062 7.26662C10.0151 7.41311 10.6105 7.77873 10.9831 8.33068C11.6898 7.27365 13.1007 7.00295 14.2819 7.20334C15.9776 7.49162 17.1812 9.38068 16.7183 11.0377C16.3304 12.2354 15.3976 13.1377 14.5058 13.9815C13.43 14.9424 12.278 15.8119 11.153 16.7131C9.52882 15.4873 7.84601 14.3108 6.45499 12.8108C5.90187 12.199 5.37335 11.5112 5.17648 10.6932C5.00538 9.39592 5.72257 8.02014 6.90382 7.44475Z" fill="#C59F81"/>
</svg>
