<svg width="20" height="22" viewBox="0 0 20 22" fill="none" xmlns="http://www.w3.org/2000/svg">
<path d="M4.98422 0.716693C5.5479 0.447161 6.30376 0.887787 6.31079 1.5206C6.32368 2.57177 6.32134 3.62295 6.31548 4.67529C6.33657 5.16748 5.92055 5.62334 5.42719 5.64443C4.89399 5.69482 4.37719 5.22724 4.40883 4.68467C4.40297 3.66513 4.4018 2.64443 4.40766 1.62373C4.3936 1.24052 4.62915 0.864349 4.98422 0.716693Z" fill="#C59F81"/>
<path d="M14.1402 0.749697C14.7027 0.421572 15.5137 0.85165 15.5348 1.50556C15.5395 2.60243 15.5594 3.70048 15.5289 4.79618C15.4961 5.46649 14.6477 5.88016 14.091 5.51102C13.702 5.30829 13.5953 4.83719 13.6281 4.4329C13.6281 3.4954 13.6246 2.5579 13.6328 1.6204C13.6176 1.26298 13.8227 0.912587 14.1402 0.749697Z" fill="#C59F81"/>
<path d="M0.172459 3.72594C0.138474 3.33336 0.450193 2.93375 0.853318 2.92086C1.68301 2.89625 2.51386 2.91031 3.34355 2.91266C3.34824 3.50328 3.35058 4.09391 3.3459 4.68453C3.33301 5.58219 3.99746 6.43063 4.86816 6.64156C5.81035 6.90172 6.87793 6.35211 7.22597 5.44391C7.50722 4.6318 7.32675 3.75289 7.37949 2.91266C9.10918 2.91031 10.84 2.90328 12.5709 2.91383C12.5697 3.53844 12.5791 4.16305 12.5768 4.78649C12.6014 5.94195 13.7814 6.91461 14.9228 6.67086C15.7877 6.53844 16.4967 5.78141 16.5799 4.91188C16.6232 4.2486 16.5893 3.5818 16.5963 2.91734C17.2877 2.90563 17.9791 2.91734 18.6705 2.90328C18.9471 2.915 19.2564 2.87047 19.4967 3.03922C19.7287 3.18688 19.8424 3.46578 19.8283 3.73414C19.826 9.36031 19.8307 14.9877 19.826 20.6127C19.84 21.038 19.4404 21.3943 19.0209 21.3627C13.0057 21.3556 6.98926 21.365 0.972849 21.358C0.552146 21.3966 0.156052 21.0392 0.175974 20.6127C0.166599 14.9841 0.172459 9.35445 0.172459 3.72594ZM1.6748 8.76734C1.68066 12.4623 1.67597 16.1572 1.67597 19.8533C7.22597 19.8603 12.776 19.8615 18.326 19.8521C18.3283 16.156 18.3225 12.4611 18.326 8.765C12.776 8.77086 7.22597 8.76852 1.6748 8.76734Z" fill="#C59F81"/>
<path d="M7.56459 11.0374C8.52904 10.8112 9.50873 11.4159 9.906 12.2878C9.95287 12.2866 10.0478 12.2831 10.0947 12.282C10.4251 11.6409 11.0052 11.0948 11.7494 11.0152C12.797 10.8452 13.8798 11.6374 14.0392 12.6839C14.1716 13.3882 13.8505 14.096 13.3595 14.5905C12.4115 15.5562 11.4482 16.5077 10.499 17.4722C10.3384 17.628 10.1462 17.8343 9.89545 17.7652C9.65756 17.6761 9.49818 17.464 9.31654 17.2976C8.33451 16.2898 7.32319 15.3113 6.34819 14.2964C5.40014 13.203 6.14545 11.2612 7.56459 11.0374Z" fill="#C59F81"/>
</svg>
