<svg width="21" height="20" viewBox="0 0 21 20" fill="none" xmlns="http://www.w3.org/2000/svg">
<path fill-rule="evenodd" clip-rule="evenodd" d="M13.1047 9.23C13.5422 9.23 13.8881 9.57 13.8881 10C13.8881 10.42 13.5422 10.77 13.1047 10.77H7V15.55C7 18 9.02471 20 11.5276 20H16.4826C18.9753 20 21 18.01 21 15.56V4.45C21 1.99 18.9651 0 16.4724 0H11.5073C9.02471 0 7 1.99 7 4.44V9.23H13.1047ZM3.3698 6.5402L0.449799 9.4502C0.299799 9.6002 0.219799 9.7902 0.219799 10.0002C0.219799 10.2002 0.299799 10.4002 0.449799 10.5402L3.3698 13.4502C3.5198 13.6002 3.7198 13.6802 3.9098 13.6802C4.1098 13.6802 4.3098 13.6002 4.4598 13.4502C4.7598 13.1502 4.7598 12.6602 4.4598 12.3602L2.8598 10.7702H6.9998V9.2302H2.8598L4.4598 7.6402C4.7598 7.3402 4.7598 6.8502 4.4598 6.5502C4.1598 6.2402 3.6698 6.2402 3.3698 6.5402Z" fill="#FF4B55"/>
</svg>
