<svg width="20" height="20" viewBox="0 0 20 20" fill="none" xmlns="http://www.w3.org/2000/svg">
<path fill-rule="evenodd" clip-rule="evenodd" d="M13.612 2.29181H6.38783C3.87033 2.29181 2.29199 4.07431 2.29199 6.59681V13.4035C2.29199 15.926 3.86283 17.7085 6.38783 17.7085H13.6112C16.137 17.7085 17.7087 15.926 17.7087 13.4035V6.59681C17.7087 4.07431 16.137 2.29181 13.612 2.29181Z" stroke="#303443" stroke-width="1.5" stroke-linecap="round" stroke-linejoin="round"/>
<path d="M10.141 9.33682C10.567 9.46882 10.915 9.59782 11.185 9.72382C11.455 9.84982 11.683 10.0388 11.869 10.2908C12.061 10.5368 12.157 10.8608 12.157 11.2628C12.157 11.5868 12.073 11.8868 11.905 12.1628C11.737 12.4328 11.485 12.6518 11.149 12.8198C10.813 12.9818 10.405 13.0628 9.925 13.0628H9.916V13.7828H9.574V13.0448C8.95 12.9908 8.44 12.7988 8.044 12.4688C7.654 12.1328 7.438 11.6978 7.396 11.1638H8.746C8.77 11.3798 8.854 11.5718 8.998 11.7398C9.142 11.9018 9.334 12.0068 9.574 12.0548V10.2908L9.394 10.2368C8.962 10.1108 8.611 9.98782 8.341 9.86782C8.077 9.74182 7.849 9.55582 7.657 9.30982C7.471 9.05782 7.378 8.72782 7.378 8.31982C7.378 7.96582 7.471 7.65682 7.657 7.39282C7.849 7.12882 8.11 6.92482 8.44 6.78082C8.776 6.63682 9.154 6.56182 9.574 6.55582V5.79982H9.916V6.56482C10.54 6.60682 11.035 6.78982 11.401 7.11382C11.773 7.43182 11.983 7.83982 12.031 8.33782H10.663C10.633 8.13982 10.552 7.97182 10.42 7.83382C10.294 7.68982 10.126 7.59682 9.916 7.55482V9.26482L10.141 9.33682ZM8.737 8.26582C8.737 8.48182 8.809 8.65882 8.953 8.79682C9.097 8.92882 9.304 9.04582 9.574 9.14782V7.52782C9.31 7.53982 9.103 7.60882 8.953 7.73482C8.809 7.86082 8.737 8.03782 8.737 8.26582ZM9.916 12.0908C10.192 12.0848 10.408 12.0098 10.564 11.8658C10.72 11.7158 10.798 11.5238 10.798 11.2898C10.798 11.0678 10.72 10.8908 10.564 10.7588C10.414 10.6208 10.198 10.5038 9.916 10.4078V12.0908Z" fill="#303443"/>
</svg>
