<svg width="30" height="32" viewBox="0 0 30 32" fill="none" xmlns="http://www.w3.org/2000/svg">
<path fill-rule="evenodd" clip-rule="evenodd" d="M23.3838 12.9954C23.3838 14.5653 23.7988 15.4907 24.7119 16.557C25.4039 17.3426 25.625 18.351 25.625 19.445C25.625 20.5378 25.266 21.5752 24.5467 22.4174C23.605 23.4271 22.2769 24.0717 20.9216 24.1837C18.9574 24.3512 16.9921 24.4922 15.0006 24.4922C13.0079 24.4922 11.0438 24.4078 9.07969 24.1837C7.72307 24.0717 6.39502 23.4271 5.45458 22.4174C4.73527 21.5752 4.375 20.5378 4.375 19.445C4.375 18.351 4.59738 17.3426 5.28811 16.557C6.22979 15.4907 6.6174 14.5653 6.6174 12.9954V12.4629C6.6174 10.3604 7.14166 8.98565 8.22124 7.63983C9.82633 5.67712 12.3992 4.5 14.9447 4.5H15.0565C17.6567 4.5 20.3128 5.73377 21.8906 7.78083C22.9142 9.09895 23.3838 10.4158 23.3838 12.4629V12.9954ZM11.3421 27.076C11.3421 26.4466 11.9198 26.1583 12.454 26.0349C13.0789 25.9027 16.8866 25.9027 17.5115 26.0349C18.0457 26.1583 18.6234 26.4466 18.6234 27.076C18.5923 27.6753 18.2407 28.2066 17.755 28.544C17.1251 29.035 16.386 29.3459 15.6132 29.458C15.1859 29.5134 14.766 29.5146 14.3535 29.458C13.5795 29.3459 12.8404 29.035 12.2117 28.5427C11.7247 28.2066 11.3732 27.6753 11.3421 27.076Z" fill="#303443"/>
<circle cx="21" cy="6" r="5" fill="#FD5454" stroke="white" stroke-width="2"/>
</svg>
