<svg width="14" height="14" viewBox="0 0 14 14" fill="none" xmlns="http://www.w3.org/2000/svg">
<path d="M12.5 5.83333H7.5V0.833333C7.5 0.61232 7.4122 0.400358 7.25592 0.244078C7.09964 0.0877975 6.88768 0 6.66667 0C6.44565 0 6.23369 0.0877975 6.07741 0.244078C5.92113 0.400358 5.83333 0.61232 5.83333 0.833333V5.83333H0.833333C0.612319 5.83333 0.400358 5.92113 0.244078 6.07741C0.0877975 6.23369 0 6.44565 0 6.66667C0 6.88768 0.0877975 7.09964 0.244078 7.25592C0.400358 7.4122 0.612319 7.5 0.833333 7.5H5.83333V12.5C5.83333 12.721 5.92113 12.933 6.07741 13.0893C6.23369 13.2455 6.44565 13.3333 6.66667 13.3333C6.88768 13.3333 7.09964 13.2455 7.25592 13.0893C7.4122 12.933 7.5 12.721 7.5 12.5V7.5H12.5C12.721 7.5 12.933 7.4122 13.0893 7.25592C13.2455 7.09964 13.3333 6.88768 13.3333 6.66667C13.3333 6.44565 13.2455 6.23369 13.0893 6.07741C12.933 5.92113 12.721 5.83333 12.5 5.83333Z" fill="white"/>
</svg>
