<svg width="20" height="13" viewBox="0 0 20 13" fill="none" xmlns="http://www.w3.org/2000/svg">
<path d="M1.79605 13H18.2045L19.9784 4.8442C20.0177 4.66327 20.0032 4.47445 19.9366 4.30203C19.87 4.12962 19.7544 3.98151 19.6047 3.87675C19.455 3.772 19.2781 3.7154 19.0966 3.71424C18.9152 3.71308 18.7375 3.76741 18.5865 3.87024L13.9886 7.00094L10.8131 0.513207C10.7375 0.358991 10.6215 0.229296 10.4779 0.138653C10.3343 0.0480105 10.1688 0 9.99999 0C9.83118 0 9.6657 0.0480105 9.5221 0.138653C9.3785 0.229296 9.26244 0.358991 9.18693 0.513207L6.01137 7.00094L1.41332 3.87024C1.26235 3.76745 1.08473 3.71315 0.903299 3.71433C0.721869 3.71551 0.544935 3.77212 0.395262 3.87686C0.245589 3.98161 0.130025 4.12971 0.0634377 4.3021C-0.0031494 4.47449 -0.0177129 4.66329 0.0216213 4.8442L1.79605 13Z" fill="white"/>
</svg>
