<svg width="20" height="20" viewBox="0 0 20 20" fill="none" xmlns="http://www.w3.org/2000/svg">
<path d="M17.125 1H12.3677C11.4662 1 10.6188 1.351 9.98123 1.98849L1.63974 10.33C1.22725 10.7425 1 11.2908 1 11.8765C1 12.4593 1.22725 13.0075 1.63974 13.42L6.58 18.3603C6.99249 18.7728 7.54075 19 8.12649 19C8.70924 19 9.2575 18.7728 9.66999 18.3603L18.0115 10.0188C18.649 9.38125 19 8.53374 19 7.63226V2.87499C19 1.8415 18.1585 1 17.125 1ZM18.25 7.63226C18.25 8.33352 17.977 8.99277 17.482 9.48777L9.13976 17.83C8.6005 18.3693 7.65476 18.373 7.111 17.83L2.17 12.889C1.89926 12.619 1.74999 12.259 1.74999 11.8735C1.74999 11.491 1.89923 11.131 2.17 10.8603L10.5115 2.51875C11.008 2.02301 11.6665 1.74999 12.3677 1.74999H17.125C17.7452 1.74999 18.25 2.25473 18.25 2.87499V7.63226H18.25Z" fill="#303443" stroke="#303443" stroke-width="0.7"/>
<path d="M14.8745 3.25C13.841 3.25 12.9995 4.0915 12.9995 5.12499C12.9995 6.15848 13.841 6.99998 14.8745 6.99998C15.908 6.99998 16.7495 6.15851 16.7495 5.12499C16.7495 4.0915 15.908 3.25 14.8745 3.25ZM14.8745 6.24999C14.2542 6.24999 13.7495 5.74525 13.7495 5.12499C13.7495 4.50473 14.2542 3.99999 14.8745 3.99999C15.4948 3.99999 15.9995 4.50473 15.9995 5.12499C15.9995 5.74525 15.4947 6.24999 14.8745 6.24999Z" fill="#303443" stroke="#303443" stroke-width="0.7"/>
</svg>
