<svg width="20" height="20" viewBox="0 0 20 20" fill="none" xmlns="http://www.w3.org/2000/svg">
<ellipse cx="9.64917" cy="6.06507" rx="3.98169" ry="3.98169" stroke="#303443" stroke-width="1.5" stroke-linecap="round" stroke-linejoin="round"/>
<path fill-rule="evenodd" clip-rule="evenodd" d="M3.33351 15.5845C3.33244 15.3046 3.39504 15.0281 3.51658 14.776C3.89796 14.0132 4.97348 13.6089 5.86593 13.4258C6.50956 13.2885 7.16208 13.1967 7.81864 13.1512C9.0342 13.0445 10.2568 13.0445 11.4723 13.1512C12.1288 13.1973 12.7813 13.289 13.425 13.4258C14.3175 13.6089 15.393 13.975 15.7744 14.776C16.0188 15.29 16.0188 15.8867 15.7744 16.4007C15.393 17.2016 14.3175 17.5677 13.425 17.7432C12.7822 17.8862 12.1294 17.9805 11.4723 18.0254C10.483 18.1093 9.48899 18.1246 8.49751 18.0712C8.26867 18.0712 8.04747 18.0712 7.81864 18.0254C7.16402 17.9811 6.51376 17.8867 5.87356 17.7432C4.97348 17.5677 3.90559 17.2016 3.51658 16.4007C3.39566 16.1456 3.33312 15.8668 3.33351 15.5845Z" stroke="#303443" stroke-width="1.5" stroke-linecap="round" stroke-linejoin="round"/>
</svg>
