<svg width="20" height="20" viewBox="0 0 20 20" fill="none" xmlns="http://www.w3.org/2000/svg">
<path d="M18.8174 7.39891C18.6537 7.28377 18.4281 7.28482 18.2667 7.40059L13.5288 10.7623L10.4193 4.23089C10.2716 3.92304 9.72956 3.92304 9.58189 4.23089L6.43598 10.8386L1.73953 7.40437C1.57786 7.28587 1.35048 7.28261 1.1852 7.3966C1.01935 7.51038 0.956582 7.71327 1.03098 7.89201L4.29385 15.7288C4.36204 15.8926 4.53139 16 4.71982 16H15.2803C15.4703 16 15.6381 15.8932 15.7065 15.7288L18.969 7.89201C19.0431 7.71432 18.9811 7.51258 18.8174 7.39891ZM14.9672 15.1498H5.03333L2.48545 9.03104L6.33358 11.8437C6.44456 11.9255 6.58839 11.9532 6.72681 11.9234C6.86409 11.8907 6.97744 11.8028 7.03491 11.682L10.0007 5.45347L12.9269 11.5996C12.9848 11.7187 13.096 11.8072 13.2318 11.8393C13.3693 11.8709 13.5116 11.8437 13.6241 11.7657L17.5333 8.99074L14.9672 15.1498Z" fill="#8D131E" stroke="#8D131E" stroke-width="0.4"/>
</svg>
