<svg width="24" height="24" viewBox="0 0 24 24" fill="none" xmlns="http://www.w3.org/2000/svg">
<path d="M17 11.5H13" stroke="white" stroke-width="1.3" stroke-linecap="round" stroke-linejoin="round"/>
<path d="M15.755 16.5H13" stroke="white" stroke-width="1.3" stroke-linecap="round" stroke-linejoin="round"/>
<path fill-rule="evenodd" clip-rule="evenodd" d="M14.7365 2.76196H8.08351C6.02451 2.76196 4.24951 4.43096 4.24951 6.49096V17.204C4.24951 19.38 5.90851 21.115 8.08351 21.115H16.0725C18.1325 21.115 19.8015 19.265 19.8015 17.204V8.03796L14.7365 2.76196Z" stroke="white" stroke-width="1.5" stroke-linecap="round" stroke-linejoin="round"/>
<path d="M14.4736 2.75024V5.65924C14.4736 7.07924 15.6226 8.23124 17.0416 8.23424C18.3586 8.23724 19.7056 8.23824 19.7966 8.23224" stroke="white" stroke-width="1.5" stroke-linecap="round" stroke-linejoin="round"/>
<path d="M10.7883 10.1546C10.6024 9.95856 10.2936 9.9475 10.0942 10.1298L8.50753 11.642L7.83819 10.9479C7.65223 10.7518 7.34351 10.7408 7.14403 10.9231C6.95199 11.1243 6.95199 11.4408 7.14403 11.642L8.16043 12.6832C8.2484 12.7818 8.37547 12.8362 8.50748 12.832C8.63826 12.8301 8.76301 12.7767 8.85454 12.6832L10.7882 10.8487C10.9799 10.6729 10.9927 10.3749 10.8168 10.1832C10.8078 10.1732 10.7983 10.1637 10.7883 10.1546Z" fill="white" stroke="white" stroke-width="0.3"/>
<path d="M10.7883 15.1546C10.6024 14.9585 10.2936 14.9475 10.0942 15.1298L8.50753 16.642L7.83819 15.9478C7.65223 15.7518 7.34351 15.7408 7.14403 15.9231C6.95199 16.1243 6.95199 16.4408 7.14403 16.642L8.16043 17.6832C8.2484 17.7817 8.37547 17.8362 8.50748 17.832C8.63826 17.8301 8.76301 17.7767 8.85454 17.6832L10.7882 15.8487C10.9799 15.6729 10.9927 15.3749 10.8168 15.1832C10.8078 15.1733 10.7983 15.1637 10.7883 15.1546Z" fill="white" stroke="white" stroke-width="0.3"/>
</svg>
