<svg width="20" height="20" viewBox="0 0 20 20" fill="none" xmlns="http://www.w3.org/2000/svg">
<path d="M10.0017 7L10 10.854C10 11.0003 10.0628 11.1402 10.1746 11.2435L13.1573 14L14 13.221L11.1919 10.6259L11.1936 7H10.0017Z" fill="#8D131E" stroke="#8D131E" stroke-width="0.2"/>
<path d="M11.125 2C7.16562 2 3.88873 4.98717 3.33991 8.85715H1L3.8125 11.7143L6.625 8.85715H4.47661C5.01475 5.61928 7.78688 3.14287 11.125 3.14287C14.8472 3.14287 17.875 6.21875 17.875 10C17.875 13.7813 14.8472 16.8572 11.125 16.8572C9.03267 16.8572 7.09249 15.8951 5.80212 14.2176L4.91553 14.9208C6.42064 16.8772 8.68383 18 11.125 18C15.4673 18 19 14.4107 19 10C19 5.58932 15.4673 2.00003 11.125 2Z" fill="#8D131E" stroke="whtie" stroke-width="0.2"/>
</svg>
