<svg width="17" height="16" viewBox="0 0 17 16" fill="none" xmlns="http://www.w3.org/2000/svg">
<path d="M12.4392 9.74012C12.2449 9.92837 12.1557 10.2006 12.1999 10.4676L12.8667 14.1576C12.9229 14.4704 12.7909 14.7869 12.5292 14.9676C12.2727 15.1551 11.9314 15.1776 11.6517 15.0276L8.32991 13.2951C8.21441 13.2336 8.08616 13.2006 7.95491 13.1969H7.75166C7.68116 13.2074 7.61216 13.2299 7.54916 13.2644L4.22666 15.0051C4.06241 15.0876 3.87641 15.1169 3.69416 15.0876C3.25016 15.0036 2.95391 14.5806 3.02666 14.1344L3.69416 10.4444C3.73841 10.1751 3.64916 9.90137 3.45491 9.71012L0.746657 7.08512C0.520157 6.86537 0.441407 6.53537 0.544907 6.23762C0.645407 5.94062 0.901907 5.72387 1.21166 5.67512L4.93916 5.13437C5.22266 5.10512 5.47166 4.93262 5.59916 4.67762L7.24166 1.31012C7.28066 1.23512 7.33091 1.16612 7.39166 1.10762L7.45916 1.05512C7.49441 1.01612 7.53491 0.983872 7.57991 0.957622L7.66166 0.927622L7.78916 0.875122H8.10491C8.38691 0.904372 8.63516 1.07312 8.76491 1.32512L10.4292 4.67762C10.5492 4.92287 10.7824 5.09312 11.0517 5.13437L14.7792 5.67512C15.0942 5.72012 15.3574 5.93762 15.4617 6.23762C15.5599 6.53837 15.4752 6.86837 15.2442 7.08512L12.4392 9.74012Z" stroke="#F0C756"/>
</svg>
