<svg width="134" height="34" viewBox="0 0 134 34" fill="none" xmlns="http://www.w3.org/2000/svg">
<path d="M0.729835 33.3344C1.02746 33.5576 132.654 33.4832 132.951 33.3344C133.175 33.1856 133.175 32.6648 132.951 32.4415C132.579 31.9951 132.282 31.9207 130.198 31.9207H128.189L129.008 31.3998C129.975 30.8046 131.24 29.5396 131.314 29.1676C131.389 28.9444 131.166 28.5724 130.942 28.5724C130.868 28.5724 130.347 28.7956 129.752 29.1676C128.189 29.9861 126.627 30.5069 122.832 31.251C120.153 31.7719 118.963 31.8463 110.778 31.8463H103.263L104.23 31.5486C106.983 30.8046 109.29 29.6141 111.969 27.6051C112.787 27.0098 112.936 26.861 112.936 26.5634C112.936 26.4145 112.787 26.2657 112.713 26.2657C112.564 26.2657 111.745 26.5634 110.852 27.0842C105.644 29.6141 99.5426 31.1766 94.4829 31.1766H93.0692L93.6644 30.7302C95.971 28.87 97.236 25.3729 96.5663 22.6942C96.0454 20.834 94.7061 19.1226 93.0692 18.3042C92.1019 17.7833 92.0275 17.7833 90.8369 17.7833C89.7208 17.7833 89.4976 17.7833 88.9768 18.0809C88.2327 18.453 87.4142 19.1971 87.0422 19.9411C86.4469 21.1316 86.2237 22.6198 86.4469 23.5871C86.5957 24.1079 87.4142 25.0752 88.0839 25.4473C89.4232 26.2657 91.2834 26.2657 92.1019 25.5961C92.4739 25.2984 92.7715 24.5544 92.7715 24.0335C92.7715 23.5127 92.5483 23.2894 92.1019 23.0662C91.6554 22.9174 91.209 23.0662 90.9858 23.5127C90.7625 23.9591 90.3905 24.1079 89.572 24.1079C88.9768 24.1079 88.8279 24.0335 88.3815 23.7359C87.1166 22.843 87.1166 20.9828 88.3815 19.7923C89.1256 19.0482 89.8696 18.825 90.9858 18.8994C93.4412 19.0482 95.5246 21.5037 95.5246 24.2567C95.5246 26.5634 94.5573 28.5724 92.8459 29.8373C91.6554 30.7302 90.7625 30.9534 88.4559 31.0278C86.6701 31.1022 86.5957 31.1022 85.3308 30.7302C82.4289 29.9861 79.4526 28.7212 76.9228 27.233C75.8067 26.5634 73.6489 24.48 72.384 22.843C71.5655 21.7269 71.2679 21.0572 71.0446 19.4947C70.6726 17.1137 71.9375 14.7326 74.0209 13.6909C74.6162 13.3933 74.8394 13.3189 75.6579 13.3189C76.774 13.3189 77.5181 13.6165 78.3365 14.5094C79.527 15.6999 79.9735 17.2625 79.3782 18.0809C78.9318 18.6762 78.1877 18.9738 77.3692 18.8994C76.3275 18.825 76.0299 18.6018 76.0299 17.9321C76.0299 17.4857 75.9555 17.3369 75.6579 17.0392C75.0626 16.444 74.1697 16.6672 73.7977 17.4857C73.4257 18.453 73.7233 19.4947 74.5418 20.3876C75.4347 21.2805 76.1787 21.5037 77.5925 21.206C79.2294 20.834 80.3455 19.7923 80.7176 18.1554C80.8664 17.4857 80.8664 17.1881 80.792 16.5928C80.4943 15.0303 79.155 13.3189 77.7413 12.6492C75.5835 11.6819 73.7233 11.9796 71.8631 13.7653C70.9702 14.6582 70.2262 15.8487 69.9285 16.9648C69.6309 18.1554 69.6309 18.1554 69.3333 16.9648C68.8868 14.9558 68.8868 13.0213 69.4821 11.8307C69.7797 11.1611 72.1607 7.58953 72.384 7.36631C72.6816 7.14309 72.6072 6.99428 72.2351 6.77105C71.8631 6.54783 69.7053 4.1668 68.8868 3.05069C68.5892 2.67866 68.0683 1.86018 67.6963 1.19051C67.3243 0.595257 67.0266 0 66.9522 0C66.8778 0 66.5802 0.52085 66.2082 1.19051C65.8361 1.78577 65.3153 2.67866 65.0176 3.05069C64.1992 4.1668 62.0414 6.54783 61.6693 6.77105C61.2973 6.99428 61.2229 7.14309 61.5205 7.36631C61.7437 7.58953 64.1248 11.1611 64.4224 11.8307C64.9432 12.9469 65.0176 14.8814 64.5712 16.9648C64.2736 18.1554 64.2736 18.0809 63.9759 16.9648C63.7527 15.8487 63.0087 14.5838 62.0414 13.7653C60.2556 12.054 58.321 11.6819 56.1632 12.6492C54.7495 13.3189 53.4101 15.0303 53.1125 16.5928C53.0381 17.1881 53.0381 17.4857 53.1869 18.1554C53.5589 19.7923 54.6006 20.9084 56.312 21.206C57.6513 21.5037 58.4698 21.2805 59.3627 20.3876C60.2556 19.4947 60.5532 18.3786 60.1068 17.4857C59.5859 16.2208 57.949 16.5928 57.949 17.9321C57.949 18.6018 57.6513 18.825 56.6096 18.8994C55.7912 18.9738 55.0471 18.6018 54.6006 18.0809C54.0054 17.2625 54.4518 15.6255 55.6423 14.5094C56.5352 13.6165 57.2049 13.3189 58.321 13.3189C59.1395 13.3189 59.3627 13.3933 59.958 13.6909C62.0414 14.7326 63.3063 17.1881 62.9342 19.4947C62.711 21.0572 62.4134 21.7269 61.5949 22.843C60.4044 24.48 58.1722 26.5634 57.0561 27.233C54.5262 28.7212 51.5499 29.9117 48.6481 30.7302C47.3831 31.1022 47.2343 31.1022 45.523 31.0278C43.1419 30.9534 42.3235 30.7302 41.1329 29.8373C39.4216 28.5724 38.4543 26.489 38.4543 24.2567C38.4543 21.5037 40.4633 19.1226 42.9931 18.8994C44.1092 18.825 44.8533 19.0482 45.5974 19.7923C47.2343 21.4293 46.5647 24.1079 44.4069 24.1079C43.514 24.1079 43.2163 23.9591 42.9931 23.5127C42.7699 23.0662 42.3235 22.9174 41.877 23.0662C41.4306 23.215 41.2074 23.5127 41.2074 24.0335C41.2074 24.48 41.505 25.2984 41.877 25.5961C42.6955 26.3401 44.5557 26.2657 45.895 25.4473C46.5647 25.0752 47.3831 24.1079 47.532 23.5871C47.8296 22.6198 47.6064 21.1316 46.9367 19.9411C46.5647 19.1971 45.7462 18.453 45.0021 18.0809C44.4069 17.7833 44.1836 17.7833 43.1419 17.7833C41.9514 17.7833 41.877 17.7833 40.9097 18.3042C40.1656 18.6762 39.7192 18.9738 39.1239 19.6435C37.7846 21.0572 37.1894 22.5454 37.1894 24.4056C37.1894 26.861 38.3799 29.3164 40.2401 30.8046L40.8353 31.251H39.4216C34.3619 31.251 28.2605 29.7629 23.052 27.1586C22.0847 26.7122 21.2662 26.3401 21.1918 26.3401C21.043 26.3401 20.9686 26.489 20.9686 26.6378C20.9686 26.861 21.1174 27.0098 21.9359 27.6795C24.6145 29.6885 26.9212 30.879 29.6742 31.6231L30.6415 31.9207H23.1264C14.9416 31.9207 13.6767 31.8463 11.0724 31.3254C7.20326 30.5069 5.71512 30.0605 4.15257 29.242C3.55731 28.9444 3.03646 28.6468 2.96205 28.6468C2.73883 28.6468 2.51561 29.0188 2.59001 29.242C2.66442 29.6141 4.00375 30.879 4.89664 31.4742L5.71512 31.9951H3.70612C1.62272 31.9951 1.32509 31.9951 0.953057 32.5159C0.432207 32.6648 0.506614 33.1856 0.729835 33.3344ZM74.393 31.6975C74.4674 31.6975 71.119 31.7719 66.8034 31.7719C62.4878 31.7719 59.1395 31.7719 59.2139 31.6975C59.8835 31.4742 61.6693 30.5069 62.711 29.7629C64.2736 28.7212 65.0176 27.9771 65.9849 26.7122C66.4314 26.1913 66.8034 25.7449 66.8034 25.7449C66.8034 25.7449 67.1755 26.1913 67.6219 26.7122C68.5892 27.9771 69.3333 28.7212 70.8958 29.7629C71.9375 30.5069 73.7233 31.4742 74.393 31.6975ZM55.5679 31.1766C55.1215 31.251 54.4518 31.3998 54.1542 31.3998C53.6333 31.4742 53.7078 31.3998 54.8983 30.8046C58.1722 29.0932 60.8508 26.7866 63.0831 23.8847C64.1248 22.471 64.7944 21.3549 65.3897 19.9411C65.8361 18.825 66.4314 16.9648 66.5802 15.8487C66.6546 15.4023 66.729 15.0303 66.8034 15.0303C66.8778 15.0303 66.9522 15.4023 67.0266 15.8487C67.2499 16.9648 67.7707 18.825 68.2172 19.9411C70.0773 24.2567 74.0209 28.3491 78.7086 30.8046C79.8991 31.4742 79.9735 31.4742 79.4526 31.3998C77.8901 31.1766 75.4347 30.5069 74.4674 29.9861C73.6489 29.6141 71.7143 28.3491 70.8214 27.6051C69.4821 26.5634 68.2916 25.1496 67.7707 23.8847C66.9522 21.8757 66.729 21.8757 65.9105 23.8847C65.3897 25.1496 64.1992 26.6378 62.8598 27.6051C61.8925 28.3491 59.958 29.5396 59.2139 29.9117C58.4698 30.3581 56.684 30.9534 55.5679 31.1766ZM67.0266 13.3933C66.9522 13.7653 66.8778 13.9886 66.8778 13.9886C66.8034 13.9886 66.729 13.6909 66.729 13.3933C66.5802 11.8307 65.6873 9.97056 64.348 8.11038L63.6783 7.2919L64.5712 6.1758C65.0176 5.58054 65.7617 4.61325 66.1338 4.0924C66.5058 3.57154 66.8778 3.1251 66.8778 3.1251C66.8778 3.1251 67.2499 3.57154 67.6219 4.0924C67.9939 4.61325 68.6636 5.58054 69.1844 6.1758L70.0773 7.2919L69.4821 8.11038C67.9939 9.97056 67.1755 11.8307 67.0266 13.3933Z" fill="#ECD2BD"/>
</svg>
