<svg width="80" height="80" viewBox="0 0 80 80" fill="none" xmlns="http://www.w3.org/2000/svg">
<path fill-rule="evenodd" clip-rule="evenodd" d="M40 80C62.0914 80 80 62.0914 80 40C80 17.9086 62.0914 0 40 0C17.9086 0 0 17.9086 0 40C0 62.0914 17.9086 80 40 80Z" fill="#F1F4F9"/>
<path fill-rule="evenodd" clip-rule="evenodd" d="M51.7813 50.8H28.2187C27.5455 50.8 27 50.2629 27 49.6V34.8919C27 34.2294 27.5455 33.6919 28.2187 33.6919H33.4238L35.3757 30.4785C35.5983 30.1895 35.947 30 36.3438 30H43.6562C43.9986 30 44.3065 30.1402 44.5283 30.3637L44.5291 30.3625L46.5988 33.6919H51.7813C52.4545 33.6919 53 34.2294 53 34.8919V49.6C53 50.2629 52.4545 50.8 51.7813 50.8ZM40 36.1532C36.4444 36.1532 33.5623 38.9914 33.5623 42.4919C33.5623 45.9928 36.4444 48.8306 40 48.8306C43.5556 48.8306 46.4378 45.9928 46.4378 42.4919C46.4378 38.9914 43.5556 36.1532 40 36.1532ZM36.2743 42.4919C36.2743 44.5178 37.9425 46.1603 40 46.1603C42.0578 46.1603 43.7257 44.5178 43.7257 42.4919C43.7257 40.4658 42.0578 38.8235 40 38.8235C37.9425 38.8235 36.2743 40.4658 36.2743 42.4919Z" fill="#303443"/>
<mask id="mask0" style="mask-type:alpha" maskUnits="userSpaceOnUse" x="27" y="30" width="26" height="21">
<path fill-rule="evenodd" clip-rule="evenodd" d="M51.7813 50.8H28.2187C27.5455 50.8 27 50.2629 27 49.6V34.8919C27 34.2294 27.5455 33.6919 28.2187 33.6919H33.4238L35.3757 30.4785C35.5983 30.1895 35.947 30 36.3438 30H43.6562C43.9986 30 44.3065 30.1402 44.5283 30.3637L44.5291 30.3625L46.5988 33.6919H51.7813C52.4545 33.6919 53 34.2294 53 34.8919V49.6C53 50.2629 52.4545 50.8 51.7813 50.8ZM40 36.1532C36.4444 36.1532 33.5623 38.9914 33.5623 42.4919C33.5623 45.9928 36.4444 48.8306 40 48.8306C43.5556 48.8306 46.4378 45.9928 46.4378 42.4919C46.4378 38.9914 43.5556 36.1532 40 36.1532ZM36.2743 42.4919C36.2743 44.5178 37.9425 46.1603 40 46.1603C42.0578 46.1603 43.7257 44.5178 43.7257 42.4919C43.7257 40.4658 42.0578 38.8235 40 38.8235C37.9425 38.8235 36.2743 40.4658 36.2743 42.4919Z" fill="white"/>
</mask>
<g mask="url(#mask0)">
</g>
</svg>
