<svg width="18" height="18" viewBox="0 0 18 18" fill="none" xmlns="http://www.w3.org/2000/svg">
<path d="M4.96154 6.74267H2.48077C1.49736 6.74267 0.7 5.94531 0.7 4.9619V2.48114C0.7 1.49773 1.49736 0.700366 2.48077 0.700366H4.96154C5.94494 0.700366 6.74231 1.49773 6.74231 2.48114V4.9619C6.74231 5.94531 5.94494 6.74267 4.96154 6.74267Z" stroke="#303443" stroke-width="1.4"/>
<path d="M4.96154 16.973H2.48077C1.49736 16.973 0.7 16.1757 0.7 15.1923V12.7115C0.7 11.7281 1.49736 10.9307 2.48077 10.9307H4.96154C5.94494 10.9307 6.74231 11.7281 6.74231 12.7115V15.1923C6.74231 16.1757 5.94494 16.973 4.96154 16.973Z" stroke="#303443" stroke-width="1.4"/>
<path d="M15.4615 16.973H12.9808C11.9974 16.973 11.2 16.1757 11.2 15.1923V12.7115C11.2 11.7281 11.9974 10.9307 12.9808 10.9307H15.4615C16.4449 10.9307 17.2423 11.7281 17.2423 12.7115V15.1923C17.2423 16.1757 16.4449 16.973 15.4615 16.973Z" stroke="#303443" stroke-width="1.4"/>
</svg>
