<?xml version="1.0" encoding="utf-8"?>
<!-- Generator: Adobe Illustrator 24.0.1, SVG Export Plug-In . SVG Version: 6.00 Build 0)  -->
<svg version="1.1" id="Layer_1" xmlns="http://www.w3.org/2000/svg" xmlns:xlink="http://www.w3.org/1999/xlink" x="0px" y="0px"
	 viewBox="0 0 512 512" style="enable-background:new 0 0 512 512;" xml:space="preserve">
<style type="text/css">
	.st0{fill:#941221;}
	.st1{fill:none;}
	.st2{fill:#FFF4F4;}
</style>
<path class="st0" d="M80,0h352c44.2,0,80,35.8,80,80v352c0,44.2-35.8,80-80,80H80c-44.2,0-80-35.8-80-80V80C0,35.8,35.8,0,80,0z"/>
<rect y="0" class="st1" width="512" height="512"/>
<path class="st2" d="M194.4,343.7v2.7h-14.9V379h-7v-32.6h-15v-2.7H194.4z"/>
<path class="st2" d="M179.5,379.1h-7.2v-32.6h-15v-2.9h37.1v2.9h-14.9V379.1z M172.6,378.8h6.7v-32.6h14.9v-2.4h-36.6v2.4h15V378.8z
	"/>
<path class="st2" d="M235,343.6l-10.6,25.7h-0.2l-12.3-25.7h-7.3v35.5h3.3v-27.6h0.3l13.3,27.5l0.1,0.1h1.5l11.8-27.9v27.9h7.3
	v-35.5H235z"/>
<path class="st2" d="M282.5,343.6l-10.6,25.7h-0.2l-12.2-25.7h-0.1h-7.3v35.5h3.3v-27.6h0.3l13.4,27.5v0.1h1.6l11.7-27.9h0.1v27.9
	h7.2v-35.5H282.5z"/>
<path class="st2" d="M347.4,343.6l-10.6,25.7h-0.2l-12.3-25.7h-7.4v35.5h3.4v-27.6h0.2l13.4,27.5v0.1h1.6l11.8-27.9v27.9h7.3v-35.5
	H347.4z"/>
<path class="st2" d="M306.9,343.5h-7.2V379h7.2V343.5z"/>
<path class="st2" d="M402.5,247.6c4,0,7.4-2.8,8.4-6.5c1,3.7,4.4,6.5,8.4,6.5c4.8,0,8.7-3.9,8.7-8.7c0-4.8-3.9-8.7-8.7-8.7
	c-4,0-7.4,2.8-8.4,6.5c-1-3.7-4.4-6.5-8.4-6.5c-4.8,0-8.7,3.9-8.7,8.7C393.8,243.7,397.7,247.6,402.5,247.6z"/>
<path class="st2" d="M401.5,264.2c-2.1,12.7-6.7,20.7-13.8,31c-12.2,17.5-37.6,23.1-57.7,24c-8.7,0.4-17.1-0.2-25.6-1.7
	c0.2-0.1,0.4-0.1,0.6-0.2c14.5-3.4,27.4-10.6,38.7-21.7c16.2-15.9,24.4-33.9,24.4-54c0-18.9-7.4-35.7-22-50.4
	c-14.6-14.7-33.2-22.1-55.7-22.1c-12.5,0-24,2.4-34.5,7.1c-10.5-4.7-22-7.1-34.5-7.1c-6.4,0-12.5,0.6-18.3,1.8
	c-14.5,3-27,9.8-37.4,20.3c-9.7,9.5-16.1,20-19.4,31.4c-1.8,6.1-2.6,12.3-2.6,18.8c0,20.1,8.2,38.1,24.4,54
	c11.5,11.3,24.8,18.7,39.7,21.9c-8.5,1.5-17,2.1-25.6,1.7c-20.1-0.9-45.5-6.5-57.7-24c-7.2-10.2-11.7-18.2-13.8-31H84l0.7,2.2
	c1.8,5.6,3.9,10.9,7,15.8c7,11.7,21,29.1,47,37.3c4,1.4,8.1,2.6,12.2,3.6c14.8,3.6,36.6,3.1,36.6,3.1c11.2-0.3,22.4-1.5,33.4-3.2
	c2.8-0.4,5.5-0.9,8-1.3c23.6,3.8,42.6,2.9,56.6,0.5c1.7,0.3,3.5,0.6,5.3,0.8c10.6,1.6,21.5,2.8,32.4,3.2c0,0,24.8,0.3,38-3.1
	c4.1-1,8.3-2.1,12.2-3.6c26-8.3,40.1-25.6,47-37.3c3.1-4.8,5.3-9.9,7-15.8l0.6-2.2L401.5,264.2z M223.4,313.3
	c-15.9,0-28.7-7.1-38.3-21.3c-7.2-10.6-11.7-22.6-13.5-35.7c-0.6-4.4-0.9-8.9-0.9-13.4c0.1-18.2,5-34.1,14.7-47.9
	c9.9-13.7,22.6-20.6,38.4-20.6c9,0,16.7,2.1,23.4,6.2c-6.1,3.2-15.5,11.5-15.5,11.5c-5.7,5.4-10.4,11.5-14.1,18.3
	c-6.7,11.9-10,23-10,32.9c0,13.5,2.7,25.5,8,35.9c3.6,7.2,8.4,13.5,14.4,19.3c4.3,4,8.9,7.5,13.7,10.3
	C237.2,311.8,230.5,313.3,223.4,313.3z M255.8,301.2c-2.4-2.1-4.7-4.5-6.6-7.2c-3.3-4.7-6-10.3-8.1-16.8
	c-4.1-12.7-6.1-25.2-6.1-37.3c0-8.7,1.8-18,5.5-28.3c3.3-9.3,8.5-17.4,15.3-24.3c1.5,1.5,4.1,4.7,4.1,4.7
	c4.8,5.8,8.4,12.2,10.9,19.5c3.7,10.2,5.5,19.6,5.5,28.2c0,12.1-2,24.5-6.1,37.2C266.9,287.4,262.2,295.4,255.8,301.2z M287.7,313.3
	c-7,0-13.6-1.6-20-4.5c5-2.9,9.6-6.3,13.8-10.3c14.8-13.9,22.2-32.3,22.2-55c0-10-3.3-21.1-10-33c-6.7-12-16.4-21.9-29.2-29.8
	c-0.1-0.1-0.2-0.1-0.3-0.2c6.7-4.1,14.5-6.2,23.4-6.2c2.3,0,4.5,0.1,6.6,0.4c12.6,1.8,23.1,8.5,31.4,20.1
	c9.8,13.7,14.7,29.6,14.7,47.7c0,18.7-4.8,35.1-14.4,49.4C316.5,306.2,303.6,313.3,287.7,313.3z"/>
<path class="st2" d="M279.5,147.7h-5.7c0,2.1-0.4,4.1-1,5.9c-0.1,0.3-0.2,0.6-0.4,1c0,0,0,0.1-0.1,0.1c-0.1,0.1-0.1,0.3-0.2,0.4
	c0,0.1-0.1,0.1-0.1,0.2c-0.1,0.1-0.1,0.2-0.2,0.3c0,0.1-0.1,0.1-0.1,0.2c-0.1,0.1-0.1,0.2-0.2,0.3c0,0.1-0.1,0.2-0.1,0.3
	c0,0.1-0.1,0.2-0.1,0.3c-0.1,0.1-0.1,0.2-0.2,0.3c0,0.1-0.1,0.1-0.1,0.2c-0.1,0.2-0.2,0.3-0.3,0.5c-2,3-4.7,4.5-8.1,4.5
	c-1.5,0-3-0.3-4.4-1c1.1-0.6,2.1-1.4,3-2.2c0.1-0.1,0.2-0.2,0.3-0.3l0.1-0.1c0.1-0.1,0.1-0.1,0.2-0.2l0.1-0.1
	c0.1-0.1,0.1-0.1,0.2-0.2l0.1-0.1c0-0.1,0.1-0.1,0.1-0.2l0.1-0.1c0-0.1,0.1-0.1,0.1-0.2l0.1-0.1c0-0.1,0.1-0.1,0.1-0.2
	c0-0.1,0.1-0.1,0.1-0.2c0-0.1,0.1-0.1,0.1-0.2c0-0.1,0.1-0.1,0.1-0.2l0.1-0.1c0-0.1,0.1-0.1,0.1-0.2l0.1-0.1c0-0.1,0.1-0.1,0.1-0.2
	l0.1-0.1c0-0.1,0.1-0.1,0.1-0.2l0.1-0.1c0-0.1,0.1-0.1,0.1-0.2l0.1-0.1c0-0.1,0.1-0.1,0.1-0.2c0,0,0-0.1,0.1-0.1
	c0-0.1,0.1-0.1,0.1-0.2c0,0,0-0.1,0.1-0.1c0-0.1,0.1-0.1,0.1-0.2c0,0,0-0.1,0.1-0.1c0-0.1,0.1-0.1,0.1-0.2c0,0,0-0.1,0.1-0.1
	c0-0.1,0.1-0.2,0.1-0.2v-0.1c0-0.1,0.1-0.2,0.1-0.2v-0.1c0-0.1,0.1-0.2,0.1-0.2v-0.1c0-0.1,0.1-0.2,0.1-0.3v-0.1
	c0-0.1,0.1-0.2,0.1-0.3v-0.1c0-0.1,0-0.2,0.1-0.3V152c0-0.1,0-0.2,0.1-0.3v-0.1c0-0.1,0-0.2,0.1-0.3v-0.1c0-0.1,0-0.2,0.1-0.3v-0.1
	c0-0.1,0-0.2,0-0.3v-0.1c0-0.1,0-0.2,0-0.3V150c0-0.1,0-0.2,0-0.3c0,0,0,0,0-0.1c0-0.1,0-0.2,0-0.4c0,0,0,0,0-0.1c0-0.1,0-0.2,0-0.4
	c0-0.1,0-0.3,0-0.4c0-0.1,0-0.3,0-0.4c0-0.1,0-0.2,0-0.4c0-2.1-0.7-4.5-2.1-7c-1.4-2.5-3.5-4.6-6.2-6.3c0,0-1.1-0.7-1.9-1
	c0,0-1.7,0.9-2,1.1c-0.9,0.6-2.4,1.7-2.9,2.2c-1.3,1.2-2.3,2.5-3.1,4c-1.4,2.5-2.1,4.9-2.1,7c0,0.1,0,0.2,0,0.4c0,0.1,0,0.3,0,0.4
	c0,0.1,0,0.3,0,0.4c0,0.1,0,0.2,0,0.4c0,0,0,0,0,0.1c0,0.1,0,0.2,0,0.3c0,0,0,0,0,0.1c0,0.1,0,0.2,0,0.3v0.1c0,0.1,0,0.2,0,0.3v0.1
	c0,0.1,0,0.2,0,0.3v0.1c0,0.1,0,0.2,0.1,0.3v0.1c0,0.1,0,0.2,0.1,0.3v0.1c0,0.1,0,0.2,0.1,0.3v0.1c0,0.1,0,0.2,0.1,0.3v0.1
	c0,0.1,0,0.2,0.1,0.3v0.1c0,0.1,0.1,0.2,0.1,0.3v0.1c0,0.1,0.1,0.2,0.1,0.2v0.1c0,0.1,0.1,0.2,0.1,0.2v0.1c0,0.1,0.1,0.2,0.1,0.2
	s0,0.1,0.1,0.1c0,0.1,0.1,0.1,0.1,0.2c0,0,0,0.1,0.1,0.1c0,0.1,0.1,0.1,0.1,0.2c0,0,0,0.1,0.1,0.1c0,0.1,0.1,0.1,0.1,0.2
	c0,0,0,0.1,0.1,0.1c0,0.1,0.1,0.1,0.1,0.2l0.1,0.1c0,0.1,0.1,0.1,0.1,0.2l0.1,0.1c0,0.1,0.1,0.1,0.1,0.2l0.1,0.1
	c0,0.1,0.1,0.1,0.1,0.2l0.1,0.1c0,0.1,0.1,0.1,0.1,0.2l0.1,0.1c0,0.1,0.1,0.1,0.1,0.2c0,0.1,0.1,0.1,0.1,0.2c0,0.1,0.1,0.1,0.1,0.2
	c0,0.1,0.1,0.1,0.1,0.2l0.1,0.1c0,0.1,0.1,0.1,0.1,0.2l0.1,0.1c0,0.1,0.1,0.1,0.1,0.2l0.1,0.1c0.1,0.1,0.1,0.1,0.2,0.2l0.1,0.1
	c0.1,0.1,0.1,0.1,0.2,0.2l0.1,0.1c0.1,0.1,0.2,0.2,0.3,0.3c0.9,0.9,1.9,1.6,3,2.2c-1.4,0.6-2.8,1-4.4,1c-3.4,0-6.1-1.5-8.1-4.5
	c-0.1-0.2-0.2-0.3-0.3-0.5c0-0.1-0.1-0.1-0.1-0.2c-0.1-0.1-0.1-0.2-0.2-0.3c0-0.1-0.1-0.1-0.1-0.2c-0.1-0.1-0.1-0.2-0.2-0.3
	c0-0.1-0.1-0.2-0.1-0.3c0-0.1-0.1-0.2-0.1-0.2c-0.2-0.4-0.3-0.7-0.5-1.1c0-0.1,0-0.1-0.1-0.2c0-0.1-0.1-0.2-0.1-0.3
	c-0.7-1.9-1.1-4.1-1.2-6.3h-5.7c0.2,3.6,1.6,6.9,4.4,9.9c0,0,0,0,0.1,0.1c0.1,0.1,0.2,0.2,0.3,0.3l0.1,0.1c0.1,0.1,0.2,0.2,0.3,0.3
	c3.4,3.4,7.6,5.1,12.3,5.1c2.2,0,4.3-0.3,6.2-1c1.9,0.7,4,1,6.2,1c4.8,0,9-1.7,12.3-5.1c0.1-0.1,0.3-0.3,0.4-0.4l0.1-0.1
	c0.1-0.1,0.3-0.3,0.4-0.4c0.1-0.1,0.2-0.3,0.3-0.4l0.1-0.1c0.1-0.1,0.2-0.3,0.3-0.4c0.1-0.1,0.2-0.3,0.3-0.4c0,0,0-0.1,0.1-0.1
	c0.1-0.1,0.2-0.3,0.3-0.4c0.1-0.1,0.2-0.3,0.3-0.4c0,0,0,0,0-0.1c0.1-0.2,0.2-0.3,0.3-0.5c0.1-0.1,0.2-0.3,0.2-0.4c0,0,0,0,0-0.1
	c0.1-0.2,0.2-0.3,0.2-0.5c0.1-0.2,0.2-0.3,0.2-0.5c0.1-0.2,0.1-0.3,0.2-0.5c0.1-0.2,0.1-0.3,0.2-0.5c0.1-0.2,0.1-0.3,0.2-0.5
	c0.1-0.3,0.2-0.7,0.3-1C279.4,149.5,279.5,148.6,279.5,147.7z"/>
</svg>
